<svg width="29" height="29" viewBox="0 0 29 29" fill="none" xmlns="http://www.w3.org/2000/svg">
<path d="M25.7713 9.66665H22.2333L21.4793 5.16199C21.3274 4.48042 20.9938 3.85273 20.5138 3.34553C20.0338 2.83834 19.4255 2.47059 18.7533 2.28132C18.0778 2.06513 17.3745 1.94792 16.6653 1.93332H12.3347C11.6255 1.94792 10.9222 2.06513 10.2467 2.28132C9.57452 2.47059 8.96617 2.83834 8.48621 3.34553C8.00624 3.85273 7.67259 4.48042 7.52067 5.16199L6.76667 9.66665H3.22867C3.07639 9.66573 2.92606 9.70079 2.78991 9.76898C2.65376 9.83717 2.53564 9.93657 2.44518 10.0591C2.35472 10.1816 2.29449 10.3237 2.26937 10.4739C2.24426 10.6241 2.25498 10.7781 2.30067 10.9233L5.93533 23.1033C6.12037 23.6917 6.48821 24.2058 6.98538 24.5709C7.48256 24.9359 8.08319 25.1329 8.7 25.1333H20.3C20.9135 25.1289 21.5098 24.9299 22.0031 24.5652C22.4964 24.2004 22.8613 23.6886 23.0453 23.1033L26.68 10.9233C26.7252 10.7796 26.7362 10.6273 26.7121 10.4786C26.688 10.3299 26.6295 10.1889 26.5412 10.0668C26.453 9.94473 26.3374 9.84498 26.2037 9.7755C26.07 9.70602 25.922 9.66875 25.7713 9.66665ZM8.73867 9.66665L9.43467 5.47132C9.51096 5.12878 9.68796 4.81688 9.9429 4.57572C10.1978 4.33456 10.5191 4.17515 10.8653 4.11799C11.3409 3.96719 11.8359 3.88405 12.3347 3.86665H16.6653C17.1719 3.88341 17.6681 3.96719 18.154 4.11799C18.5002 4.17515 18.8215 4.33456 19.0764 4.57572C19.3314 4.81688 19.5084 5.12878 19.5847 5.47132L20.2613 9.66665H8.66133H8.73867Z" fill="white"/>
</svg>
