<svg width="239" height="28" viewBox="0 0 239 28" fill="none" xmlns="http://www.w3.org/2000/svg">
<path d="M24.1851 0.637451H12.8335C2.46605 0.637451 0 2.43322 0 9.96928V18.2355C0 25.7837 2.44755 27.5808 12.8149 27.5808H24.1665C34.5321 27.5808 37 25.7985 37 18.249V9.98275C37 2.43322 34.5525 0.637451 24.1851 0.637451ZM29.8701 19.8615H27.1709C26.1498 19.8615 25.8427 19.2593 24.0112 17.9256C22.4128 16.8035 21.7375 16.6633 21.3323 16.6633C20.7737 16.6633 20.6201 16.7752 20.6201 17.3369V19.1044C20.6201 19.5827 20.4074 19.8629 18.6924 19.8629C17.028 19.7814 15.4141 19.4132 13.9834 18.7885C12.5528 18.1639 11.3464 17.3007 10.4636 16.27C8.36786 14.3705 6.90964 12.1411 6.2049 9.75912C6.2049 9.46409 6.35845 9.19735 7.1299 9.19735H9.8272C10.5209 9.19735 10.7707 9.42233 11.0427 9.94099C12.3525 12.7485 14.5872 15.1895 15.4938 15.1895C15.8415 15.1895 15.9933 15.0777 15.9933 14.4459V11.5549C15.8786 10.236 14.9165 10.1242 14.9165 9.6473C14.9289 9.52152 15.0081 9.40418 15.1372 9.32018C15.2664 9.23618 15.4354 9.19212 15.6085 9.19735H19.8486C20.4277 9.19735 20.6201 9.40751 20.6201 9.9127V13.8141C20.6201 14.2358 20.8699 14.3759 21.0438 14.3759C21.3916 14.3759 21.6598 14.2358 22.2962 13.7723C23.6631 12.5585 24.7799 11.2061 25.6114 9.75777C25.6964 9.5838 25.8572 9.43486 26.0693 9.33367C26.2814 9.23248 26.5332 9.18461 26.7861 9.19735H29.4853C30.2938 9.19735 30.4658 9.49238 30.2938 9.9127C29.3123 11.5137 28.0979 13.0335 26.6714 14.4459C26.381 14.7692 26.2645 14.9376 26.6714 15.3162C26.9397 15.6112 27.885 16.1865 28.5215 16.7334C29.4463 17.4052 30.2143 18.1824 30.7951 19.0344C31.0264 19.5813 30.6397 19.8615 29.8701 19.8615Z" fill="#545454"/>
<path d="M104.503 2.97045L71.7277 12.1647C69.4909 12.8183 69.5039 13.726 71.3173 14.1308L79.7319 16.0404L99.2009 7.10432C100.121 6.69685 100.963 6.91605 100.271 7.36252L84.4975 17.7187H84.4938L84.4975 17.7201L83.917 24.0298C84.7674 24.0298 85.1426 23.746 85.6196 23.4112L89.7067 20.5199L98.2082 25.0881C99.7758 25.7161 100.902 25.3934 101.292 24.0325L106.872 4.89887C107.444 3.23268 105.998 2.47826 104.503 2.97045Z" fill="#545454"/>
<path d="M154.4 18.0101L163.742 14.1091L154.4 10.208V18.0101ZM175.208 7.82836C175.442 8.43953 175.604 9.25875 175.712 10.299C175.838 11.3393 175.892 12.2366 175.892 13.0168L176 14.1091C176 16.9568 175.712 19.0504 175.208 20.3898C174.758 21.5601 173.714 22.3143 172.094 22.6394C171.248 22.8084 169.7 22.9255 167.324 23.0035C164.984 23.0945 162.842 23.1335 160.862 23.1335L158 23.2115C150.458 23.2115 145.76 23.0035 143.906 22.6394C142.286 22.3143 141.242 21.5601 140.792 20.3898C140.558 19.7786 140.396 18.9594 140.288 17.9191C140.162 16.8788 140.108 15.9816 140.108 15.2014L140 14.1091C140 11.2613 140.288 9.16773 140.792 7.82836C141.242 6.65804 142.286 5.90384 143.906 5.57875C144.752 5.4097 146.3 5.29267 148.676 5.21465C151.016 5.12362 153.158 5.08461 155.138 5.08461L158 5.00659C165.542 5.00659 170.24 5.21465 172.094 5.57875C173.714 5.90384 174.758 6.65804 175.208 7.82836Z" fill="#545454"/>
<path d="M233.008 5.85866C231.743 4.81683 231.047 3.47888 231.047 2.09387H225.332V18.6482C225.288 19.5441 224.764 20.3926 223.871 21.0152C222.977 21.6377 221.784 21.9857 220.542 21.9858C217.916 21.9858 215.733 20.4372 215.733 18.5147C215.733 16.2185 218.804 14.4963 221.966 15.2039V10.9852C215.585 10.3711 210 13.9489 210 18.5147C210 22.9604 215.105 26.1244 220.524 26.1244C226.331 26.1244 231.047 22.7201 231.047 18.5147V10.1174C233.365 11.3187 236.147 11.9633 239 11.9597V7.8345C239 7.8345 235.523 7.95466 233.008 5.85866Z" fill="#545454"/>
</svg>
