<svg width="146" height="27" viewBox="0 0 146 27" fill="none" xmlns="http://www.w3.org/2000/svg">
<path d="M11.798 1.452C11.798 1.63333 11.8093 1.78067 11.832 1.894C11.8547 1.98467 11.866 2.07533 11.866 2.166C11.8887 2.25667 11.9113 2.35867 11.934 2.472C11.9567 2.56267 11.968 2.69867 11.968 2.88C11.968 3.12933 11.8547 3.33333 11.628 3.492C11.424 3.65067 11.1973 3.73 10.948 3.73C10.6307 3.73 10.3813 3.74133 10.2 3.764C10.0187 3.78666 9.84867 3.80933 9.69 3.832C9.53133 3.832 9.36133 3.84333 9.18 3.866C8.99867 3.88867 8.74933 3.9 8.432 3.9C7.77467 3.9 7.18533 3.85467 6.664 3.764C6.14267 3.67333 5.56467 3.628 4.93 3.628C4.47667 3.628 4.114 3.80933 3.842 4.172C3.57 4.512 3.434 4.90867 3.434 5.362C3.434 5.74733 3.434 6.05333 3.434 6.28C3.434 6.50666 3.434 6.722 3.434 6.926C3.45667 7.10733 3.468 7.31133 3.468 7.538C3.468 7.76467 3.468 8.07067 3.468 8.456V11.55C3.468 12.0033 3.59267 12.4 3.842 12.74C4.114 13.08 4.47667 13.25 4.93 13.25C5.38333 13.25 5.83667 13.2387 6.29 13.216C6.74333 13.1707 7.18533 13.148 7.616 13.148C7.86533 13.148 8.092 13.2387 8.296 13.42C8.52267 13.5787 8.636 13.7827 8.636 14.032C8.636 14.2133 8.61333 14.3493 8.568 14.44C8.54533 14.5307 8.51133 14.6213 8.466 14.712C8.44333 14.8027 8.42067 14.9047 8.398 15.018C8.37533 15.1087 8.364 15.2447 8.364 15.426C8.364 15.97 8.11467 16.242 7.616 16.242C7.18533 16.242 6.74333 16.2533 6.29 16.276C5.83667 16.2987 5.38333 16.31 4.93 16.31C4.47667 16.31 4.09133 16.4687 3.774 16.786C3.47933 17.0807 3.332 17.4547 3.332 17.908C3.332 18.2027 3.332 18.4407 3.332 18.622C3.35467 18.7807 3.37733 18.9393 3.4 19.098C3.42267 19.2567 3.434 19.4267 3.434 19.608C3.45667 19.7667 3.468 19.9933 3.468 20.288C3.468 20.5827 3.44533 20.8207 3.4 21.002C3.37733 21.1607 3.34333 21.3193 3.298 21.478C3.27533 21.6367 3.25267 21.8067 3.23 21.988C3.20733 22.1693 3.196 22.4073 3.196 22.702C3.196 22.9967 3.20733 23.2347 3.23 23.416C3.25267 23.5747 3.27533 23.7333 3.298 23.892C3.34333 24.0507 3.37733 24.2207 3.4 24.402C3.44533 24.5607 3.468 24.7873 3.468 25.082C3.468 25.3313 3.35467 25.5353 3.128 25.694C2.924 25.83 2.69733 25.898 2.448 25.898C2.26667 25.898 2.11933 25.9093 2.006 25.932C1.91533 25.932 1.82467 25.932 1.734 25.932C1.64333 25.932 1.54133 25.9433 1.428 25.966C1.33733 25.966 1.20133 25.966 1.02 25.966C0.770667 25.966 0.589333 25.8867 0.476 25.728C0.362667 25.5467 0.306 25.3313 0.306 25.082C0.306 24.7193 0.283333 24.4247 0.238 24.198C0.215333 23.9713 0.181333 23.7673 0.136 23.586C0.113333 23.4047 0.0793333 23.212 0.034 23.008C0.0113333 22.7813 0 22.4867 0 22.124V19.166C0 18.8033 0.0113333 18.52 0.034 18.316C0.0566667 18.0893 0.0793333 17.8853 0.102 17.704C0.147333 17.5227 0.181333 17.33 0.204 17.126C0.226667 16.8993 0.238 16.5933 0.238 16.208V13.284C0.238 12.9213 0.226667 12.6267 0.204 12.4C0.181333 12.1733 0.158667 11.9693 0.136 11.788C0.136 11.6067 0.124667 11.414 0.102 11.21C0.0793333 10.9833 0.068 10.6887 0.068 10.326C0.068 9.96333 0.068 9.66867 0.068 9.442C0.0906667 9.21533 0.102 9.01133 0.102 8.83C0.102 8.64867 0.102 8.456 0.102 8.252C0.124667 8.02533 0.136 7.73067 0.136 7.368C0.136 7.00533 0.147333 6.722 0.17 6.518C0.192667 6.29133 0.204 6.08733 0.204 5.906C0.226667 5.72467 0.249333 5.532 0.272 5.328C0.294667 5.10133 0.306 4.79533 0.306 4.41C0.306 4.04733 0.294667 3.764 0.272 3.56C0.272 3.33333 0.260667 3.12933 0.238 2.948C0.215333 2.76667 0.192667 2.574 0.17 2.37C0.17 2.14333 0.17 1.83733 0.17 1.452C0.17 1.20267 0.249333 1.02133 0.408 0.907999C0.566667 0.794666 0.770667 0.737999 1.02 0.737999C1.38267 0.737999 1.67733 0.726666 1.904 0.703999C2.13067 0.681332 2.33467 0.658665 2.516 0.635998C2.69733 0.590665 2.89 0.556666 3.094 0.534C3.32067 0.511332 3.62667 0.499998 4.012 0.499998C4.76 0.499998 5.41733 0.545331 5.984 0.635998C6.55067 0.703999 7.208 0.737999 7.956 0.737999C8.31867 0.737999 8.61333 0.726666 8.84 0.703999C9.06667 0.681332 9.27067 0.669998 9.452 0.669998C9.63333 0.647331 9.826 0.624665 10.03 0.601999C10.2567 0.579332 10.5627 0.567999 10.948 0.567999C11.1973 0.567999 11.4013 0.658666 11.56 0.84C11.7187 0.998666 11.798 1.20267 11.798 1.452ZM17.6078 19.166C17.6078 19.5513 17.5964 19.8573 17.5738 20.084C17.5738 20.288 17.5624 20.4807 17.5398 20.662C17.5171 20.8433 17.4944 21.0473 17.4718 21.274C17.4718 21.478 17.4718 21.7613 17.4718 22.124C17.4718 22.4867 17.4718 22.7813 17.4718 23.008C17.4944 23.212 17.5058 23.4047 17.5058 23.586C17.5284 23.7673 17.5398 23.9713 17.5398 24.198C17.5624 24.4247 17.5738 24.7193 17.5738 25.082C17.5738 25.3313 17.4944 25.5467 17.3358 25.728C17.1998 25.9093 17.0071 26 16.7578 26C16.5764 26 16.4291 26 16.3158 26C16.2251 26 16.1344 26 16.0438 26C15.9531 25.9773 15.8511 25.966 15.7378 25.966C15.6471 25.966 15.5111 25.966 15.3298 25.966C15.0804 25.966 14.8651 25.8867 14.6838 25.728C14.5251 25.5467 14.4458 25.3313 14.4458 25.082C14.4458 24.7193 14.4458 24.4247 14.4458 24.198C14.4684 23.9713 14.4911 23.7673 14.5138 23.586C14.5364 23.4047 14.5478 23.212 14.5478 23.008C14.5704 22.7813 14.5818 22.4867 14.5818 22.124C14.5818 21.7613 14.5704 21.478 14.5478 21.274C14.5251 21.0473 14.4911 20.8433 14.4458 20.662C14.4231 20.4807 14.4004 20.288 14.3778 20.084C14.3551 19.8573 14.3438 19.5513 14.3438 19.166C14.3438 18.8033 14.3551 18.52 14.3778 18.316C14.4004 18.0893 14.4231 17.8853 14.4458 17.704C14.4684 17.5227 14.4911 17.33 14.5138 17.126C14.5364 16.8993 14.5478 16.5933 14.5478 16.208C14.5478 15.8453 14.5478 15.562 14.5478 15.358C14.5478 15.1313 14.5478 14.9273 14.5478 14.746C14.5704 14.5647 14.5818 14.372 14.5818 14.168C14.5818 13.9413 14.5818 13.6467 14.5818 13.284C14.5818 12.9213 14.5704 12.6267 14.5478 12.4C14.5251 12.1733 14.4911 11.9693 14.4458 11.788C14.4231 11.6067 14.4004 11.414 14.3778 11.21C14.3551 10.9833 14.3438 10.6887 14.3438 10.326C14.3438 9.96333 14.3438 9.66867 14.3438 9.442C14.3664 9.21533 14.3778 9.01133 14.3778 8.83C14.3778 8.64867 14.3778 8.456 14.3778 8.252C14.4004 8.02533 14.4118 7.73067 14.4118 7.368C14.4118 7.00533 14.4118 6.722 14.4118 6.518C14.4344 6.29133 14.4458 6.08733 14.4458 5.906C14.4684 5.72467 14.4798 5.532 14.4798 5.328C14.5024 5.10133 14.5138 4.79533 14.5138 4.41C14.5138 4.04733 14.5024 3.764 14.4798 3.56C14.4798 3.33333 14.4684 3.12933 14.4458 2.948C14.4458 2.76667 14.4344 2.574 14.4118 2.37C14.4118 2.14333 14.4118 1.83733 14.4118 1.452C14.4118 1.20267 14.5024 1.01 14.6838 0.873999C14.8651 0.715332 15.0804 0.635998 15.3298 0.635998C15.5111 0.635998 15.6471 0.647331 15.7378 0.669998C15.8511 0.669998 15.9531 0.669998 16.0438 0.669998C16.1344 0.669998 16.2251 0.681332 16.3158 0.703999C16.4291 0.703999 16.5764 0.703999 16.7578 0.703999C17.0071 0.703999 17.2111 0.771999 17.3698 0.907999C17.5511 1.02133 17.6418 1.20267 17.6418 1.452C17.6418 1.83733 17.6418 2.14333 17.6418 2.37C17.6418 2.574 17.6304 2.76667 17.6078 2.948C17.6078 3.12933 17.6078 3.33333 17.6078 3.56C17.6078 3.764 17.6078 4.04733 17.6078 4.41C17.6078 4.79533 17.5964 5.10133 17.5738 5.328C17.5738 5.532 17.5624 5.72467 17.5398 5.906C17.5398 6.08733 17.5284 6.29133 17.5058 6.518C17.5058 6.722 17.5058 7.00533 17.5058 7.368C17.5058 7.73067 17.5171 8.02533 17.5398 8.252C17.5624 8.456 17.5738 8.64867 17.5738 8.83C17.5964 9.01133 17.6191 9.21533 17.6418 9.442C17.6644 9.66867 17.6758 9.96333 17.6758 10.326C17.6758 10.6887 17.6644 10.9833 17.6418 11.21C17.6191 11.414 17.5964 11.6067 17.5738 11.788C17.5738 11.9693 17.5624 12.1733 17.5398 12.4C17.5171 12.6267 17.5058 12.9213 17.5058 13.284C17.5058 13.6467 17.5058 13.9413 17.5058 14.168C17.5284 14.372 17.5398 14.5647 17.5398 14.746C17.5624 14.9273 17.5738 15.1313 17.5738 15.358C17.5964 15.562 17.6078 15.8453 17.6078 16.208V19.166ZM30.4491 22.872C30.6985 22.872 30.9251 22.94 31.1291 23.076C31.3558 23.212 31.4691 23.4047 31.4691 23.654C31.4691 23.8353 31.4578 23.9827 31.4351 24.096C31.4125 24.1867 31.3785 24.2773 31.3331 24.368C31.3105 24.4587 31.2878 24.5607 31.2651 24.674C31.2425 24.7647 31.2311 24.9007 31.2311 25.082C31.2311 25.3313 31.1631 25.5467 31.0271 25.728C30.8911 25.9093 30.6985 26 30.4491 26C30.0638 26 29.7578 26 29.5311 26C29.3271 26 29.1345 26 28.9531 26C28.7718 26.0227 28.5678 26.034 28.3411 26.034C28.1145 26.034 27.8198 26.034 27.4571 26.034C27.0718 26.034 26.7658 26.034 26.5391 26.034C26.3351 26.034 26.1425 26.0227 25.9611 26C25.7798 26 25.5758 26 25.3491 26C25.1225 26 24.8278 26 24.4651 26C24.0798 26 23.7738 26 23.5471 26C23.3431 25.9773 23.1505 25.966 22.9691 25.966C22.7878 25.966 22.5838 25.966 22.3571 25.966C22.1305 25.9433 21.8358 25.932 21.4731 25.932C21.2238 25.932 21.0085 25.8527 20.8271 25.694C20.6685 25.5353 20.5891 25.3313 20.5891 25.082C20.5891 24.7193 20.5891 24.4247 20.5891 24.198C20.6118 23.9713 20.6231 23.7673 20.6231 23.586C20.6231 23.4047 20.6231 23.212 20.6231 23.008C20.6458 22.7813 20.6571 22.4867 20.6571 22.124C20.6571 21.7613 20.6458 21.478 20.6231 21.274C20.6231 21.0473 20.6118 20.8433 20.5891 20.662C20.5891 20.4807 20.5778 20.288 20.5551 20.084C20.5551 19.8573 20.5551 19.5513 20.5551 19.166V16.208C20.5551 15.8453 20.5551 15.562 20.5551 15.358C20.5778 15.1313 20.5891 14.9273 20.5891 14.746C20.5891 14.5647 20.5891 14.372 20.5891 14.168C20.6118 13.9413 20.6231 13.6467 20.6231 13.284C20.6231 12.9213 20.6231 12.6267 20.6231 12.4C20.6458 12.1733 20.6571 11.9693 20.6571 11.788C20.6571 11.6067 20.6571 11.414 20.6571 11.21C20.6798 10.9833 20.6911 10.6887 20.6911 10.326C20.6911 9.96333 20.6798 9.66867 20.6571 9.442C20.6345 9.21533 20.6005 9.01133 20.5551 8.83C20.5325 8.64867 20.5098 8.456 20.4871 8.252C20.4645 8.02533 20.4531 7.73067 20.4531 7.368C20.4531 7.00533 20.4645 6.722 20.4871 6.518C20.5098 6.29133 20.5325 6.08733 20.5551 5.906C20.6005 5.72467 20.6345 5.532 20.6571 5.328C20.6798 5.10133 20.6911 4.79533 20.6911 4.41C20.6911 4.04733 20.6911 3.764 20.6911 3.56C20.6911 3.33333 20.6911 3.12933 20.6911 2.948C20.7138 2.76667 20.7251 2.574 20.7251 2.37C20.7251 2.14333 20.7251 1.83733 20.7251 1.452C20.7251 1.20267 20.7818 0.987332 20.8951 0.805998C21.0311 0.624666 21.2238 0.534 21.4731 0.534C21.6545 0.534 21.7905 0.545333 21.8811 0.567999C21.9945 0.567999 22.0965 0.567999 22.1871 0.567999C22.2778 0.567999 22.3685 0.579332 22.4591 0.601999C22.5725 0.601999 22.7198 0.601999 22.9011 0.601999C23.1505 0.601999 23.3318 0.681332 23.4451 0.84C23.5811 0.998666 23.6491 1.20267 23.6491 1.452V4.274C23.6491 4.63667 23.6605 4.92 23.6831 5.124C23.7058 5.328 23.7285 5.52067 23.7511 5.702C23.7965 5.88333 23.8305 6.076 23.8531 6.28C23.8985 6.484 23.9211 6.756 23.9211 7.096C23.9211 7.436 23.9098 7.708 23.8871 7.912C23.8871 8.116 23.8871 8.30867 23.8871 8.49C23.8871 8.67133 23.8758 8.864 23.8531 9.068C23.8531 9.272 23.8531 9.55533 23.8531 9.918C23.8531 10.258 23.8418 10.53 23.8191 10.734C23.8191 10.938 23.8078 11.1307 23.7851 11.312C23.7851 11.4933 23.7738 11.686 23.7511 11.89C23.7511 12.094 23.7511 12.3773 23.7511 12.74C23.7511 13.08 23.7511 13.352 23.7511 13.556C23.7738 13.76 23.7851 13.9527 23.7851 14.134C23.7851 14.3153 23.7851 14.508 23.7851 14.712C23.8078 14.916 23.8191 15.188 23.8191 15.528C23.8191 15.8907 23.8191 16.174 23.8191 16.378C23.8191 16.582 23.8078 16.7747 23.7851 16.956C23.7851 17.1373 23.7851 17.33 23.7851 17.534C23.7851 17.738 23.7851 18.01 23.7851 18.35C23.7851 18.7127 23.7851 18.996 23.7851 19.2C23.8078 19.404 23.8191 19.5967 23.8191 19.778C23.8418 19.9593 23.8531 20.152 23.8531 20.356C23.8758 20.56 23.8871 20.832 23.8871 21.172C23.8871 21.6253 24.0231 21.9993 24.2951 22.294C24.5671 22.566 24.9298 22.702 25.3831 22.702C25.7005 22.702 25.9498 22.702 26.1311 22.702C26.3125 22.6793 26.4825 22.668 26.6411 22.668C26.7998 22.668 26.9698 22.668 27.1511 22.668C27.3325 22.6453 27.5818 22.634 27.8991 22.634C28.2165 22.634 28.4658 22.6453 28.6471 22.668C28.8285 22.6907 28.9985 22.7247 29.1571 22.77C29.3158 22.7927 29.4858 22.8153 29.6671 22.838C29.8711 22.8607 30.1318 22.872 30.4491 22.872ZM50.932 16.208C50.932 16.5933 50.9433 16.8993 50.966 17.126C50.9887 17.33 51 17.5227 51 17.704C51.0227 17.8853 51.0453 18.0893 51.068 18.316C51.0907 18.52 51.102 18.8033 51.102 19.166C51.102 19.5513 51.0907 19.8573 51.068 20.084C51.0453 20.288 51.0113 20.4807 50.966 20.662C50.9433 20.8433 50.9207 21.0473 50.898 21.274C50.8753 21.478 50.864 21.7613 50.864 22.124C50.864 22.4867 50.864 22.7813 50.864 23.008C50.8867 23.212 50.898 23.4047 50.898 23.586C50.9207 23.7673 50.932 23.9713 50.932 24.198C50.9547 24.4247 50.966 24.7193 50.966 25.082C50.966 25.3313 50.8867 25.5693 50.728 25.796C50.5693 26 50.3653 26.102 50.116 26.102C49.9347 26.102 49.7873 26.0907 49.674 26.068C49.5833 26.068 49.4927 26.0567 49.402 26.034C49.3113 26.034 49.2093 26.0227 49.096 26C49.0053 26 48.8693 26 48.688 26C48.4387 26 48.2233 25.9093 48.042 25.728C47.8607 25.5467 47.77 25.3313 47.77 25.082C47.77 24.7193 47.77 24.436 47.77 24.232C47.77 24.0053 47.77 23.8013 47.77 23.62C47.7927 23.4387 47.804 23.246 47.804 23.042C47.804 22.8153 47.804 22.5093 47.804 22.124C47.804 21.7613 47.804 21.478 47.804 21.274C47.8267 21.0473 47.8493 20.8433 47.872 20.662C47.8947 20.4807 47.906 20.288 47.906 20.084C47.9287 19.8573 47.94 19.5627 47.94 19.2V16.242C47.94 15.8793 47.9287 15.596 47.906 15.392C47.8833 15.1653 47.8607 14.9613 47.838 14.78C47.838 14.5987 47.8267 14.406 47.804 14.202C47.7813 13.9753 47.77 13.6807 47.77 13.318C47.77 13.0913 47.6453 12.9553 47.396 12.91C47.1467 12.842 46.988 12.91 46.92 13.114C46.8067 13.4313 46.716 13.6807 46.648 13.862C46.58 14.0433 46.512 14.2133 46.444 14.372C46.3987 14.508 46.342 14.6667 46.274 14.848C46.206 15.0293 46.1153 15.2787 46.002 15.596C45.8887 15.9133 45.798 16.1627 45.73 16.344C45.6847 16.5253 45.6393 16.6953 45.594 16.854C45.5487 16.99 45.5033 17.16 45.458 17.364C45.4127 17.5453 45.3333 17.7833 45.22 18.078C45.1067 18.3953 45.016 18.6447 44.948 18.826C44.88 19.0073 44.812 19.1773 44.744 19.336C44.6987 19.472 44.642 19.6307 44.574 19.812C44.506 19.9933 44.4153 20.2427 44.302 20.56C44.234 20.7413 44.1207 20.9 43.962 21.036C43.826 21.172 43.6673 21.24 43.486 21.24C43.2593 21.24 43.078 21.24 42.942 21.24C42.806 21.2173 42.6813 21.1947 42.568 21.172C42.4547 21.1493 42.3187 21.138 42.16 21.138C42.024 21.1153 41.8427 21.104 41.616 21.104C41.2987 21.104 41.0607 20.9113 40.902 20.526C40.7887 20.2313 40.6867 19.9933 40.596 19.812C40.5053 19.6307 40.4147 19.472 40.324 19.336C40.2333 19.2 40.1427 19.0527 40.052 18.894C39.9613 18.7127 39.8593 18.4633 39.746 18.146C39.6327 17.8513 39.5533 17.6133 39.508 17.432C39.4627 17.228 39.4173 17.0467 39.372 16.888C39.3493 16.7293 39.3153 16.5593 39.27 16.378C39.2247 16.174 39.1453 15.9133 39.032 15.596L38.148 13.148C38.08 12.944 37.9327 12.8647 37.706 12.91C37.502 12.9553 37.4 13.0913 37.4 13.318C37.4 13.6807 37.4 13.9753 37.4 14.202C37.4 14.406 37.4 14.5987 37.4 14.78C37.4227 14.9613 37.434 15.1653 37.434 15.392C37.434 15.596 37.434 15.8793 37.434 16.242C37.434 16.6047 37.4227 16.8993 37.4 17.126C37.4 17.33 37.4 17.5227 37.4 17.704C37.4 17.8853 37.3887 18.0893 37.366 18.316C37.366 18.5427 37.366 18.8373 37.366 19.2C37.366 19.5627 37.3547 19.8573 37.332 20.084C37.3093 20.288 37.2867 20.4807 37.264 20.662C37.2413 20.8433 37.2187 21.0473 37.196 21.274C37.1733 21.478 37.162 21.7613 37.162 22.124C37.162 22.5093 37.162 22.8153 37.162 23.042C37.162 23.246 37.162 23.4387 37.162 23.62C37.1847 23.8013 37.196 24.0053 37.196 24.232C37.196 24.436 37.196 24.7193 37.196 25.082C37.196 25.3313 37.128 25.5353 36.992 25.694C36.8787 25.83 36.6973 25.898 36.448 25.898C36.2667 25.898 36.1193 25.9093 36.006 25.932C35.9153 25.9547 35.8247 25.9773 35.734 26C35.6433 26.0227 35.5413 26.0453 35.428 26.068C35.3373 26.0907 35.2013 26.102 35.02 26.102C34.7707 26.102 34.544 26 34.34 25.796C34.136 25.5693 34.034 25.3313 34.034 25.082C34.034 24.7193 34.0453 24.4247 34.068 24.198C34.0907 23.9713 34.102 23.7673 34.102 23.586C34.1247 23.4047 34.1473 23.212 34.17 23.008C34.1927 22.7813 34.204 22.4867 34.204 22.124C34.204 21.7613 34.1927 21.478 34.17 21.274C34.1473 21.0473 34.1247 20.8433 34.102 20.662C34.0793 20.4807 34.0567 20.288 34.034 20.084C34.0113 19.8573 34 19.5513 34 19.166C34 18.8033 34 18.52 34 18.316C34 18.0893 34 17.8853 34 17.704C34.0227 17.5227 34.034 17.33 34.034 17.126C34.034 16.8993 34.034 16.5933 34.034 16.208V13.284C34.034 12.9213 34.0453 12.6267 34.068 12.4C34.0907 12.1733 34.1133 11.9693 34.136 11.788C34.1813 11.6067 34.2153 11.414 34.238 11.21C34.2607 10.9833 34.272 10.6887 34.272 10.326V7.368C34.272 7.00533 34.2607 6.722 34.238 6.518C34.2153 6.29133 34.1927 6.08733 34.17 5.906C34.17 5.72467 34.1587 5.532 34.136 5.328C34.1133 5.10133 34.102 4.79533 34.102 4.41C34.102 4.04733 34.102 3.764 34.102 3.56C34.1247 3.33333 34.1473 3.12933 34.17 2.948C34.1927 2.76667 34.204 2.574 34.204 2.37C34.2267 2.14333 34.238 1.83733 34.238 1.452C34.238 1.20267 34.306 0.998666 34.442 0.84C34.578 0.658666 34.7707 0.567999 35.02 0.567999C35.156 0.567999 35.2693 0.579332 35.36 0.601999C35.4507 0.624665 35.53 0.647331 35.598 0.669998C35.666 0.669998 35.7453 0.681332 35.836 0.703999C35.9267 0.726666 36.0513 0.737999 36.21 0.737999C36.3913 0.737999 36.5613 0.760665 36.72 0.805998C36.9013 0.851332 37.0147 0.964666 37.06 1.146C37.1733 1.46333 37.264 1.724 37.332 1.928C37.4 2.10933 37.4567 2.27933 37.502 2.438C37.5473 2.59667 37.604 2.778 37.672 2.982C37.74 3.16333 37.8307 3.41267 37.944 3.73C38.0573 4.04733 38.1593 4.29667 38.25 4.478C38.3407 4.65933 38.42 4.82933 38.488 4.988C38.556 5.124 38.624 5.28267 38.692 5.464C38.7827 5.64533 38.8847 5.89467 38.998 6.212C39.1113 6.52933 39.1907 6.79 39.236 6.994C39.304 7.17533 39.3493 7.35667 39.372 7.538C39.4173 7.69667 39.4627 7.878 39.508 8.082C39.576 8.26333 39.6667 8.51267 39.78 8.83C39.8933 9.14733 39.9953 9.39667 40.086 9.578C40.1767 9.75933 40.256 9.92933 40.324 10.088C40.4147 10.224 40.5053 10.3827 40.596 10.564C40.7093 10.7453 40.8227 10.9947 40.936 11.312C41.0493 11.6293 41.14 11.8787 41.208 12.06C41.276 12.2413 41.3327 12.4113 41.378 12.57C41.446 12.7287 41.514 12.8987 41.582 13.08C41.65 13.2613 41.7407 13.5107 41.854 13.828C42.0127 14.2133 42.2733 14.4173 42.636 14.44C42.9987 14.4627 43.248 14.2813 43.384 13.896C43.4973 13.5787 43.588 13.3293 43.656 13.148C43.724 12.944 43.792 12.774 43.86 12.638C43.928 12.4793 43.996 12.3093 44.064 12.128C44.132 11.924 44.2227 11.6633 44.336 11.346C44.4493 11.0287 44.5287 10.7793 44.574 10.598C44.642 10.394 44.6987 10.2127 44.744 10.054C44.7893 9.89533 44.8347 9.72533 44.88 9.544C44.948 9.34 45.0387 9.07933 45.152 8.762C45.2653 8.44467 45.3673 8.19533 45.458 8.014C45.5487 7.83267 45.628 7.674 45.696 7.538C45.7867 7.37933 45.866 7.20933 45.934 7.028C46.0247 6.84667 46.1267 6.59733 46.24 6.28C46.3533 5.96267 46.444 5.71333 46.512 5.532C46.58 5.328 46.6367 5.14667 46.682 4.988C46.75 4.82933 46.8067 4.65933 46.852 4.478C46.92 4.274 47.0107 4.01333 47.124 3.696C47.2373 3.37867 47.328 3.12933 47.396 2.948C47.464 2.76667 47.5207 2.59667 47.566 2.438C47.634 2.25667 47.6907 2.07533 47.736 1.894C47.804 1.71267 47.8947 1.46333 48.008 1.146C48.076 0.964666 48.1893 0.805999 48.348 0.669998C48.5293 0.533998 48.7107 0.465998 48.892 0.465998C49.2093 0.465998 49.4133 0.477332 49.504 0.499998C49.5947 0.499998 49.7987 0.499998 50.116 0.499998C50.3653 0.499998 50.5693 0.601998 50.728 0.805998C50.9093 0.987332 51 1.20267 51 1.452C51 1.83733 50.9887 2.14333 50.966 2.37C50.966 2.574 50.9547 2.76667 50.932 2.948C50.932 3.12933 50.9207 3.33333 50.898 3.56C50.898 3.764 50.898 4.04733 50.898 4.41C50.898 4.79533 50.9093 5.10133 50.932 5.328C50.9547 5.532 50.9773 5.72467 51 5.906C51.0227 6.08733 51.0453 6.29133 51.068 6.518C51.0907 6.722 51.102 7.00533 51.102 7.368C51.102 7.73067 51.0907 8.02533 51.068 8.252C51.0453 8.456 51.0113 8.64867 50.966 8.83C50.9433 9.01133 50.9207 9.21533 50.898 9.442C50.8753 9.66867 50.864 9.96333 50.864 10.326C50.864 10.6887 50.8753 10.9833 50.898 11.21C50.9207 11.414 50.9433 11.6067 50.966 11.788C51.0113 11.9693 51.0453 12.1733 51.068 12.4C51.1133 12.6267 51.136 12.9213 51.136 13.284C51.136 13.6467 51.1247 13.9413 51.102 14.168C51.0793 14.372 51.0567 14.5647 51.034 14.746C51.0113 14.9273 50.9887 15.1313 50.966 15.358C50.9433 15.562 50.932 15.8453 50.932 16.208ZM65.9239 14.508C66.3772 15.2787 66.6039 16.1627 66.6039 17.16C66.6039 17.636 66.6039 18.01 66.6039 18.282C66.6039 18.554 66.5925 18.8147 66.5699 19.064C66.5699 19.2907 66.5699 19.54 66.5699 19.812C66.5699 20.084 66.5699 20.458 66.5699 20.934C66.5699 21.4327 66.5245 21.92 66.4339 22.396C66.3659 22.8493 66.2185 23.2687 65.9919 23.654C65.7425 24.062 65.4252 24.402 65.0399 24.674C64.6772 24.9233 64.2919 25.1727 63.8839 25.422C63.4985 25.6487 63.0905 25.8527 62.6599 26.034C62.2292 26.238 61.7759 26.34 61.2999 26.34C61.0505 26.34 60.8465 26.3287 60.6879 26.306C60.5519 26.306 60.4272 26.306 60.3139 26.306C60.2005 26.306 60.0645 26.2947 59.9059 26.272C59.7699 26.272 59.5772 26.272 59.3279 26.272C58.8972 26.272 58.4892 26.2153 58.1039 26.102C57.7412 25.9887 57.3785 25.8413 57.0159 25.66C56.2905 25.3427 55.6672 24.844 55.1459 24.164C54.8965 23.8467 54.6699 23.5067 54.4659 23.144C54.2845 22.7813 54.1485 22.4073 54.0579 22.022C54.0125 21.75 54.0805 21.5007 54.2619 21.274C54.4659 21.0247 54.7039 20.9 54.9759 20.9C55.1572 20.9 55.3045 20.9 55.4179 20.9C55.5312 20.9 55.6332 20.9113 55.7239 20.934C55.8145 20.934 55.9165 20.934 56.0299 20.934C56.1432 20.934 56.2905 20.934 56.4719 20.934C56.6532 20.934 56.8345 20.9907 57.0159 21.104C57.2199 21.1947 57.3445 21.3307 57.3899 21.512C57.5259 21.9653 57.7639 22.3393 58.1039 22.634C58.4439 22.906 58.8519 23.042 59.3279 23.042C59.5772 23.042 59.7699 23.0533 59.9059 23.076C60.0645 23.076 60.2005 23.0873 60.3139 23.11C60.4272 23.11 60.5519 23.1213 60.6879 23.144C60.8465 23.144 61.0505 23.144 61.2999 23.144C61.8892 23.144 62.3992 22.9287 62.8299 22.498C63.2605 22.0447 63.4759 21.5233 63.4759 20.934C63.4759 20.458 63.4759 20.084 63.4759 19.812C63.4759 19.54 63.4645 19.2907 63.4419 19.064C63.4419 18.8147 63.4419 18.554 63.4419 18.282C63.4419 18.01 63.4419 17.636 63.4419 17.16C63.4419 16.5707 63.2265 16.0493 62.7959 15.596C62.3879 15.12 61.8892 14.882 61.2999 14.882C61.0505 14.882 60.8465 14.9047 60.6879 14.95C60.5519 14.9727 60.4272 15.0067 60.3139 15.052C60.2005 15.0747 60.0645 15.1087 59.9059 15.154C59.7699 15.1767 59.5772 15.188 59.3279 15.188C58.8519 15.188 58.3872 15.1087 57.9339 14.95C57.4805 14.7687 57.0612 14.5647 56.6759 14.338C56.2679 14.0887 55.8825 13.8167 55.5199 13.522C55.1799 13.2047 54.8852 12.842 54.6359 12.434C54.4092 12.0487 54.2279 11.6293 54.0919 11.176C53.9785 10.7 53.9219 10.224 53.9219 9.748C53.9219 9.22667 53.9219 8.81867 53.9219 8.524C53.9445 8.20667 53.9559 7.92333 53.9559 7.674C53.9559 7.402 53.9559 7.11867 53.9559 6.824C53.9785 6.50667 53.9899 6.08733 53.9899 5.566C53.9899 5.09 54.0352 4.614 54.1259 4.138C54.2165 3.662 54.3752 3.23133 54.6019 2.846C54.8512 2.438 55.1459 2.07533 55.4859 1.758C55.8485 1.418 56.2339 1.13467 56.6419 0.907999C57.0272 0.658666 57.4465 0.488666 57.8999 0.397999C58.3759 0.307332 58.8519 0.261999 59.3279 0.261999C59.5772 0.261999 59.7699 0.273332 59.9059 0.295999C60.0645 0.295999 60.2005 0.295999 60.3139 0.295999C60.4272 0.295999 60.5519 0.307332 60.6879 0.329998C60.8465 0.329998 61.0505 0.329998 61.2999 0.329998C62.1839 0.329998 62.9545 0.511332 63.6119 0.873999C64.3825 1.23667 65.0172 1.724 65.5159 2.336C65.9919 2.97067 66.2979 3.70733 66.4339 4.546C66.5019 4.818 66.4565 5.06733 66.2979 5.294C66.1392 5.52067 65.9239 5.634 65.6519 5.634C65.4705 5.634 65.3232 5.634 65.2099 5.634C65.0965 5.61133 64.9945 5.6 64.9039 5.6C64.8132 5.57733 64.7112 5.566 64.5979 5.566C64.4845 5.54333 64.3372 5.532 64.1559 5.532C63.9745 5.532 63.7932 5.48667 63.6119 5.396C63.4532 5.30533 63.3512 5.16933 63.3059 4.988C63.1699 4.53467 62.9205 4.18333 62.5579 3.934C62.1952 3.68467 61.7759 3.56 61.2999 3.56C61.0505 3.56 60.8465 3.54867 60.6879 3.526C60.5519 3.50333 60.4272 3.492 60.3139 3.492C60.2005 3.46933 60.0645 3.44667 59.9059 3.424C59.7699 3.40133 59.5772 3.39 59.3279 3.39C58.7385 3.39 58.2512 3.60533 57.8659 4.036C57.4805 4.46667 57.2879 4.97667 57.2879 5.566C57.2879 6.08733 57.2765 6.50667 57.2539 6.824C57.2539 7.11867 57.2539 7.402 57.2539 7.674C57.2539 7.92333 57.2425 8.20667 57.2199 8.524C57.2199 8.81867 57.2199 9.22667 57.2199 9.748C57.2199 10.3373 57.4239 10.8473 57.8319 11.278C58.2399 11.686 58.7385 11.89 59.3279 11.89C59.5772 11.89 59.7699 11.89 59.9059 11.89C60.0645 11.89 60.2005 11.89 60.3139 11.89C60.4272 11.8673 60.5519 11.856 60.6879 11.856C60.8465 11.856 61.0505 11.856 61.2999 11.856C61.7759 11.856 62.2519 11.9013 62.7279 11.992C63.2039 12.0827 63.6345 12.2413 64.0199 12.468C64.4052 12.7173 64.7565 13.0233 65.0739 13.386C65.4139 13.726 65.6972 14.1 65.9239 14.508ZM97.1611 19.166C97.1611 19.5513 97.1724 19.8573 97.1951 20.084C97.2178 20.288 97.2404 20.4807 97.2631 20.662C97.3084 20.8433 97.3424 21.0473 97.3651 21.274C97.4104 21.478 97.4331 21.7613 97.4331 22.124C97.4331 22.4867 97.4218 22.7813 97.3991 23.008C97.3991 23.212 97.3991 23.4047 97.3991 23.586C97.3991 23.7673 97.3878 23.9713 97.3651 24.198C97.3651 24.4247 97.3651 24.7193 97.3651 25.082C97.3651 25.3313 97.2631 25.524 97.0591 25.66C96.8778 25.7733 96.6624 25.83 96.4131 25.83C96.2318 25.83 96.0844 25.8413 95.9711 25.864C95.8804 25.8867 95.7898 25.9093 95.6991 25.932C95.6084 25.932 95.5064 25.9433 95.3931 25.966C95.3024 25.9887 95.1664 26 94.9851 26C94.7358 26 94.5431 25.9093 94.4071 25.728C94.2711 25.5467 94.2031 25.3313 94.2031 25.082C94.2031 24.7647 94.2031 24.5153 94.2031 24.334C94.2031 24.13 94.1918 23.9487 94.1691 23.79C94.1691 23.6313 94.1691 23.4613 94.1691 23.28C94.1691 23.076 94.1691 22.804 94.1691 22.464C94.1691 22.1467 94.1691 21.8973 94.1691 21.716C94.1918 21.512 94.2031 21.3307 94.2031 21.172C94.2258 21.0133 94.2371 20.8433 94.2371 20.662C94.2598 20.458 94.2711 20.1973 94.2711 19.88C94.2711 19.5627 94.2598 19.3133 94.2371 19.132C94.2144 18.928 94.1918 18.7467 94.1691 18.588C94.1691 18.4293 94.1578 18.2593 94.1351 18.078C94.1124 17.874 94.1011 17.6133 94.1011 17.296C94.1011 16.8427 93.9424 16.4573 93.6251 16.14C93.3304 15.8227 92.9678 15.664 92.5371 15.664C92.0838 15.664 91.7211 15.6753 91.4491 15.698C91.1998 15.698 90.9618 15.7093 90.7351 15.732C90.5084 15.7547 90.2591 15.7773 89.9871 15.8C89.7378 15.8 89.3978 15.8 88.9671 15.8C88.5138 15.8 88.1284 15.936 87.8111 16.208C87.5164 16.48 87.3691 16.8427 87.3691 17.296C87.3691 17.6133 87.3691 17.874 87.3691 18.078C87.3691 18.2593 87.3578 18.4293 87.3351 18.588C87.3351 18.7467 87.3351 18.928 87.3351 19.132C87.3351 19.3133 87.3351 19.5627 87.3351 19.88C87.3351 20.1973 87.3351 20.458 87.3351 20.662C87.3578 20.8433 87.3804 21.0133 87.4031 21.172C87.4258 21.3307 87.4371 21.512 87.4371 21.716C87.4598 21.8973 87.4711 22.1467 87.4711 22.464C87.4711 22.804 87.4598 23.076 87.4371 23.28C87.4371 23.4613 87.4258 23.6313 87.4031 23.79C87.3804 23.9487 87.3578 24.13 87.3351 24.334C87.3351 24.5153 87.3351 24.7647 87.3351 25.082C87.3351 25.3313 87.2558 25.558 87.0971 25.762C86.9384 25.9433 86.7344 26.034 86.4851 26.034C86.3038 26.034 86.1564 26.034 86.0431 26.034C85.9524 26.034 85.8618 26.0227 85.7711 26C85.6804 26 85.5784 26 85.4651 26C85.3744 26 85.2384 26 85.0571 26C84.8078 26 84.6038 25.9093 84.4451 25.728C84.3091 25.5467 84.2411 25.3313 84.2411 25.082C84.2411 24.7193 84.2298 24.4247 84.2071 24.198C84.2071 23.9713 84.1958 23.7673 84.1731 23.586C84.1504 23.4047 84.1278 23.212 84.1051 23.008C84.1051 22.7813 84.1051 22.4867 84.1051 22.124C84.1051 21.7613 84.1051 21.478 84.1051 21.274C84.1278 21.0473 84.1391 20.8433 84.1391 20.662C84.1618 20.4807 84.1731 20.288 84.1731 20.084C84.1958 19.8573 84.2071 19.5513 84.2071 19.166C84.2071 18.8033 84.1958 18.52 84.1731 18.316C84.1504 18.0893 84.1278 17.8853 84.1051 17.704C84.1051 17.5227 84.0938 17.33 84.0711 17.126C84.0484 16.8993 84.0371 16.5933 84.0371 16.208C84.0371 15.8453 84.0484 15.562 84.0711 15.358C84.0938 15.1313 84.1164 14.9273 84.1391 14.746C84.1844 14.5647 84.2184 14.372 84.2411 14.168C84.2864 13.9413 84.3091 13.6467 84.3091 13.284C84.3091 12.9213 84.2978 12.6267 84.2751 12.4C84.2751 12.1733 84.2751 11.9693 84.2751 11.788C84.2751 11.6067 84.2638 11.414 84.2411 11.21C84.2411 10.9833 84.2411 10.6887 84.2411 10.326C84.2411 9.96333 84.2411 9.66867 84.2411 9.442C84.2411 9.21533 84.2411 9.01133 84.2411 8.83C84.2638 8.64867 84.2751 8.456 84.2751 8.252C84.2751 8.02533 84.2751 7.73067 84.2751 7.368C84.2751 7.00533 84.2638 6.722 84.2411 6.518C84.2411 6.29133 84.2411 6.08733 84.2411 5.906C84.2411 5.72467 84.2298 5.532 84.2071 5.328C84.2071 5.10133 84.2071 4.79533 84.2071 4.41C84.2071 4.04733 84.2071 3.764 84.2071 3.56C84.2298 3.33333 84.2524 3.12933 84.2751 2.948C84.2978 2.76667 84.3091 2.574 84.3091 2.37C84.3318 2.14333 84.3431 1.83733 84.3431 1.452C84.3431 1.20267 84.3998 0.998666 84.5131 0.84C84.6264 0.681332 84.8078 0.601999 85.0571 0.601999C85.2384 0.601999 85.3744 0.601999 85.4651 0.601999C85.5784 0.601999 85.6804 0.601999 85.7711 0.601999C85.8618 0.579332 85.9524 0.567999 86.0431 0.567999C86.1564 0.567999 86.3038 0.567999 86.4851 0.567999C86.7344 0.567999 86.9158 0.658666 87.0291 0.84C87.1651 0.998666 87.2331 1.20267 87.2331 1.452C87.2331 1.86 87.2331 2.17733 87.2331 2.404C87.2558 2.63067 87.2671 2.846 87.2671 3.05C87.2671 3.254 87.2671 3.46933 87.2671 3.696C87.2898 3.92267 87.3011 4.22867 87.3011 4.614C87.3011 4.99933 87.3011 5.30533 87.3011 5.532C87.3238 5.75867 87.3351 5.974 87.3351 6.178C87.3578 6.382 87.3691 6.59733 87.3691 6.824C87.3918 7.05067 87.4031 7.35667 87.4031 7.742C87.4031 8.15 87.4031 8.46733 87.4031 8.694C87.4258 8.92067 87.4371 9.136 87.4371 9.34C87.4598 9.544 87.4711 9.75933 87.4711 9.986C87.4938 10.2127 87.5051 10.5187 87.5051 10.904C87.5051 11.3573 87.6298 11.754 87.8791 12.094C88.1511 12.4113 88.5138 12.57 88.9671 12.57C89.3978 12.57 89.7378 12.57 89.9871 12.57C90.2591 12.5473 90.5084 12.536 90.7351 12.536C90.9618 12.5133 91.1998 12.502 91.4491 12.502C91.7211 12.4793 92.0838 12.468 92.5371 12.468C92.9678 12.468 93.3531 12.3207 93.6931 12.026C94.0558 11.7313 94.2371 11.3573 94.2371 10.904C94.2371 10.5187 94.2258 10.2127 94.2031 9.986C94.1804 9.75933 94.1578 9.544 94.1351 9.34C94.1351 9.136 94.1238 8.92067 94.1011 8.694C94.1011 8.46733 94.1011 8.15 94.1011 7.742C94.1011 7.35667 94.1011 7.05067 94.1011 6.824C94.1011 6.59733 94.1011 6.382 94.1011 6.178C94.1238 5.974 94.1351 5.75867 94.1351 5.532C94.1351 5.30533 94.1351 4.99933 94.1351 4.614C94.1351 4.22867 94.1351 3.92267 94.1351 3.696C94.1578 3.46933 94.1691 3.254 94.1691 3.05C94.1918 2.846 94.2031 2.63067 94.2031 2.404C94.2258 2.17733 94.2371 1.86 94.2371 1.452C94.2371 0.953332 94.4864 0.703999 94.9851 0.703999C95.1664 0.703999 95.3024 0.692666 95.3931 0.669998C95.5064 0.647331 95.6084 0.624665 95.6991 0.601999C95.7898 0.556666 95.8804 0.522666 95.9711 0.499998C96.0844 0.477332 96.2318 0.465998 96.4131 0.465998C96.6624 0.465998 96.8664 0.567998 97.0251 0.771999C97.1838 0.975999 97.2631 1.20267 97.2631 1.452C97.2631 1.83733 97.2518 2.14333 97.2291 2.37C97.2291 2.574 97.2291 2.76667 97.2291 2.948C97.2291 3.12933 97.2178 3.33333 97.1951 3.56C97.1951 3.764 97.1951 4.04733 97.1951 4.41C97.1951 4.79533 97.2064 5.10133 97.2291 5.328C97.2518 5.532 97.2631 5.72467 97.2631 5.906C97.2858 6.08733 97.3084 6.29133 97.3311 6.518C97.3538 6.722 97.3651 7.00533 97.3651 7.368V10.326C97.3651 10.6887 97.3651 10.9833 97.3651 11.21C97.3878 11.414 97.3991 11.6067 97.3991 11.788C97.3991 11.9693 97.3991 12.1733 97.3991 12.4C97.4218 12.6267 97.4331 12.9213 97.4331 13.284C97.4331 13.6467 97.4104 13.9413 97.3651 14.168C97.3424 14.372 97.3084 14.5647 97.2631 14.746C97.2404 14.9273 97.2178 15.1313 97.1951 15.358C97.1724 15.562 97.1611 15.8453 97.1611 16.208V19.166ZM114.349 17.874C114.349 18.2593 114.337 18.5653 114.315 18.792C114.292 19.0187 114.269 19.2227 114.247 19.404C114.224 19.5853 114.201 19.7893 114.179 20.016C114.156 20.2427 114.145 20.5487 114.145 20.934C114.145 21.4327 114.111 21.9087 114.043 22.362C113.975 22.8153 113.816 23.2347 113.567 23.62C113.34 24.028 113.034 24.368 112.649 24.64C112.286 24.912 111.901 25.1727 111.493 25.422C111.107 25.6487 110.699 25.8527 110.269 26.034C109.861 26.238 109.419 26.34 108.943 26.34C108.535 26.34 108.206 26.3287 107.957 26.306C107.73 26.306 107.515 26.2947 107.311 26.272C107.107 26.272 106.88 26.2607 106.631 26.238C106.404 26.238 106.087 26.238 105.679 26.238C105.203 26.238 104.749 26.1587 104.319 26C103.888 25.864 103.48 25.6713 103.095 25.422C102.709 25.1953 102.335 24.9347 101.973 24.64C101.633 24.3453 101.338 24.0053 101.089 23.62C100.635 22.8267 100.409 21.9313 100.409 20.934C100.409 20.5487 100.397 20.2427 100.375 20.016C100.375 19.7893 100.363 19.5853 100.341 19.404C100.341 19.2227 100.329 19.0187 100.307 18.792C100.307 18.5653 100.307 18.2593 100.307 17.874C100.307 17.4887 100.307 17.1827 100.307 16.956C100.307 16.7293 100.307 16.5253 100.307 16.344C100.329 16.1627 100.341 15.9587 100.341 15.732C100.341 15.5053 100.341 15.1993 100.341 14.814V11.72C100.341 11.3347 100.352 11.0287 100.375 10.802C100.397 10.5753 100.409 10.3713 100.409 10.19C100.431 10.0087 100.454 9.80467 100.477 9.578C100.499 9.35133 100.511 9.04533 100.511 8.66C100.511 8.27467 100.499 7.96867 100.477 7.742C100.477 7.51533 100.465 7.31133 100.443 7.13C100.443 6.926 100.431 6.71067 100.409 6.484C100.409 6.25733 100.409 5.95133 100.409 5.566C100.409 5.09 100.488 4.648 100.647 4.24C100.805 3.80933 100.998 3.40133 101.225 3.016C101.474 2.608 101.735 2.234 102.007 1.894C102.279 1.53133 102.619 1.22533 103.027 0.975998C103.412 0.726665 103.831 0.556665 104.285 0.465998C104.738 0.375332 105.203 0.329998 105.679 0.329998C106.087 0.329998 106.404 0.318665 106.631 0.295999C106.88 0.273332 107.107 0.261999 107.311 0.261999C107.515 0.239333 107.73 0.216666 107.957 0.193998C108.206 0.171331 108.535 0.159998 108.943 0.159998C109.419 0.159998 109.883 0.239332 110.337 0.397999C110.79 0.556665 111.209 0.749331 111.595 0.975998C111.98 1.22533 112.309 1.53133 112.581 1.894C112.875 2.234 113.147 2.608 113.397 3.016C113.623 3.40133 113.827 3.80933 114.009 4.24C114.19 4.648 114.281 5.09 114.281 5.566C114.281 5.95133 114.269 6.25733 114.247 6.484C114.224 6.71067 114.201 6.926 114.179 7.13C114.179 7.31133 114.167 7.51533 114.145 7.742C114.122 7.96867 114.111 8.27467 114.111 8.66C114.111 9.04533 114.111 9.35133 114.111 9.578C114.133 9.80467 114.145 10.0087 114.145 10.19C114.167 10.3713 114.179 10.5753 114.179 10.802C114.201 11.0287 114.213 11.3347 114.213 11.72C114.213 12.1053 114.213 12.4113 114.213 12.638C114.235 12.8647 114.258 13.08 114.281 13.284C114.303 13.4653 114.315 13.6693 114.315 13.896C114.337 14.1227 114.349 14.4287 114.349 14.814V17.874ZM111.085 20.934C111.085 20.5487 111.085 20.2427 111.085 20.016C111.107 19.7893 111.13 19.5853 111.153 19.404C111.175 19.2227 111.187 19.0187 111.187 18.792C111.209 18.5653 111.221 18.2593 111.221 17.874C111.221 17.4887 111.209 17.1827 111.187 16.956C111.164 16.7293 111.141 16.5253 111.119 16.344C111.119 16.1627 111.107 15.9587 111.085 15.732C111.062 15.5053 111.051 15.1993 111.051 14.814C111.051 14.4287 111.051 14.1227 111.051 13.896C111.073 13.6693 111.085 13.4653 111.085 13.284C111.085 13.08 111.085 12.8647 111.085 12.638C111.107 12.4113 111.119 12.1053 111.119 11.72C111.119 11.3347 111.107 11.0287 111.085 10.802C111.062 10.5753 111.039 10.3713 111.017 10.19C111.017 10.0087 111.005 9.80467 110.983 9.578C110.96 9.35133 110.949 9.04533 110.949 8.66C110.949 8.27467 110.949 7.96867 110.949 7.742C110.971 7.51533 110.983 7.31133 110.983 7.13C111.005 6.926 111.017 6.71067 111.017 6.484C111.039 6.25733 111.051 5.95133 111.051 5.566C111.051 4.97667 110.847 4.45533 110.439 4.002C110.031 3.54867 109.532 3.322 108.943 3.322C108.535 3.322 108.206 3.33333 107.957 3.356C107.73 3.37867 107.515 3.40133 107.311 3.424C107.107 3.44667 106.88 3.46933 106.631 3.492C106.404 3.51467 106.087 3.526 105.679 3.526C105.089 3.526 104.579 3.71867 104.149 4.104C103.741 4.48933 103.537 4.97667 103.537 5.566C103.537 5.95133 103.525 6.25733 103.503 6.484C103.503 6.71067 103.491 6.926 103.469 7.13C103.469 7.31133 103.457 7.51533 103.435 7.742C103.435 7.96867 103.435 8.27467 103.435 8.66C103.435 9.04533 103.435 9.35133 103.435 9.578C103.457 9.80467 103.48 10.0087 103.503 10.19C103.525 10.3713 103.537 10.5753 103.537 10.802C103.559 11.0287 103.571 11.3347 103.571 11.72V14.814C103.571 15.1993 103.571 15.5053 103.571 15.732C103.593 15.9587 103.605 16.1627 103.605 16.344C103.605 16.5253 103.605 16.7293 103.605 16.956C103.627 17.1827 103.639 17.4887 103.639 17.874V20.934C103.639 21.5233 103.831 22.022 104.217 22.43C104.602 22.8153 105.089 23.008 105.679 23.008C106.087 23.008 106.404 23.0193 106.631 23.042C106.88 23.0647 107.107 23.0873 107.311 23.11C107.515 23.1327 107.73 23.1553 107.957 23.178C108.206 23.2007 108.535 23.212 108.943 23.212C109.532 23.212 110.031 22.9853 110.439 22.532C110.869 22.056 111.085 21.5233 111.085 20.934ZM129.852 12.774C129.852 13.1367 129.863 13.42 129.886 13.624C129.909 13.828 129.92 14.0207 129.92 14.202C129.943 14.3833 129.965 14.576 129.988 14.78C130.011 14.984 130.022 15.2673 130.022 15.63C130.022 15.97 130.011 16.242 129.988 16.446C129.965 16.65 129.943 16.8427 129.92 17.024C129.897 17.2053 129.875 17.398 129.852 17.602C129.829 17.806 129.818 18.0893 129.818 18.452C129.818 18.8147 129.818 19.098 129.818 19.302C129.818 19.506 129.818 19.6987 129.818 19.88C129.841 20.0613 129.852 20.254 129.852 20.458C129.852 20.662 129.852 20.934 129.852 21.274C129.852 21.7727 129.818 22.2487 129.75 22.702C129.705 23.1553 129.557 23.5747 129.308 23.96C129.081 24.368 128.798 24.742 128.458 25.082C128.118 25.422 127.755 25.7053 127.37 25.932C126.985 26.1813 126.554 26.34 126.078 26.408C125.625 26.476 125.149 26.51 124.65 26.51H122.814C122.315 26.51 121.851 26.442 121.42 26.306C120.989 26.1927 120.581 26.0227 120.196 25.796C119.788 25.5467 119.414 25.2747 119.074 24.98C118.734 24.6853 118.451 24.334 118.224 23.926C117.975 23.5407 117.805 23.1327 117.714 22.702C117.623 22.2487 117.578 21.7727 117.578 21.274C117.578 20.934 117.567 20.662 117.544 20.458C117.521 20.254 117.487 20.0613 117.442 19.88C117.419 19.6987 117.397 19.506 117.374 19.302C117.351 19.098 117.34 18.8147 117.34 18.452V15.63C117.34 15.2673 117.351 14.984 117.374 14.78C117.419 14.576 117.453 14.3833 117.476 14.202C117.521 14.0207 117.555 13.828 117.578 13.624C117.623 13.42 117.646 13.1367 117.646 12.774C117.646 12.434 117.635 12.162 117.612 11.958C117.612 11.754 117.601 11.5613 117.578 11.38C117.555 11.1987 117.533 11.006 117.51 10.802C117.51 10.598 117.51 10.3147 117.51 9.952C117.51 9.58933 117.499 9.306 117.476 9.102C117.453 8.898 117.431 8.70533 117.408 8.524C117.408 8.34267 117.397 8.15 117.374 7.946C117.351 7.742 117.34 7.47 117.34 7.13C117.34 6.76733 117.351 6.484 117.374 6.28C117.397 6.076 117.419 5.88333 117.442 5.702C117.487 5.52067 117.521 5.328 117.544 5.124C117.589 4.92 117.612 4.648 117.612 4.308C117.612 3.94533 117.601 3.662 117.578 3.458C117.555 3.254 117.533 3.06133 117.51 2.88C117.51 2.69867 117.499 2.506 117.476 2.302C117.453 2.098 117.442 1.81467 117.442 1.452C117.442 1.20267 117.533 0.975999 117.714 0.771999C117.895 0.567998 118.111 0.465998 118.36 0.465998C118.541 0.465998 118.677 0.465998 118.768 0.465998C118.881 0.465998 118.983 0.477332 119.074 0.499998C119.165 0.499998 119.255 0.499998 119.346 0.499998C119.459 0.499998 119.607 0.499998 119.788 0.499998C120.037 0.499998 120.241 0.601998 120.4 0.805998C120.581 0.987332 120.672 1.20267 120.672 1.452C120.672 1.81467 120.661 2.098 120.638 2.302C120.638 2.506 120.638 2.69867 120.638 2.88C120.638 3.06133 120.627 3.254 120.604 3.458C120.604 3.662 120.604 3.94533 120.604 4.308C120.604 4.648 120.604 4.92 120.604 5.124C120.627 5.328 120.638 5.52067 120.638 5.702C120.661 5.88333 120.672 6.076 120.672 6.28C120.695 6.484 120.706 6.76733 120.706 7.13C120.706 7.49267 120.695 7.776 120.672 7.98C120.672 8.184 120.672 8.37667 120.672 8.558C120.672 8.73933 120.661 8.932 120.638 9.136C120.638 9.34 120.638 9.612 120.638 9.952C120.638 10.3147 120.638 10.598 120.638 10.802C120.661 11.006 120.683 11.1987 120.706 11.38C120.729 11.5613 120.74 11.754 120.74 11.958C120.763 12.162 120.774 12.434 120.774 12.774C120.774 13.1367 120.763 13.42 120.74 13.624C120.717 13.828 120.683 14.0207 120.638 14.202C120.615 14.3833 120.593 14.576 120.57 14.78C120.547 14.984 120.536 15.2673 120.536 15.63V18.452C120.536 18.8147 120.547 19.098 120.57 19.302C120.593 19.506 120.615 19.6987 120.638 19.88C120.683 20.0613 120.717 20.254 120.74 20.458C120.785 20.662 120.808 20.934 120.808 21.274C120.808 21.8633 120.989 22.3393 121.352 22.702C121.737 23.0647 122.225 23.246 122.814 23.246C123.041 23.246 123.222 23.246 123.358 23.246C123.494 23.246 123.619 23.2573 123.732 23.28C123.845 23.28 123.97 23.28 124.106 23.28C124.242 23.28 124.423 23.28 124.65 23.28C125.239 23.28 125.761 23.0987 126.214 22.736C126.69 22.3507 126.928 21.8633 126.928 21.274C126.928 20.934 126.917 20.662 126.894 20.458C126.871 20.254 126.837 20.0613 126.792 19.88C126.769 19.6987 126.747 19.506 126.724 19.302C126.701 19.098 126.69 18.8147 126.69 18.452C126.69 18.0893 126.701 17.806 126.724 17.602C126.747 17.398 126.769 17.2053 126.792 17.024C126.815 16.8427 126.837 16.65 126.86 16.446C126.883 16.242 126.894 15.97 126.894 15.63C126.894 15.2673 126.871 14.984 126.826 14.78C126.803 14.576 126.769 14.3833 126.724 14.202C126.701 14.0207 126.679 13.828 126.656 13.624C126.633 13.42 126.622 13.1367 126.622 12.774C126.622 12.434 126.622 12.162 126.622 11.958C126.645 11.754 126.656 11.5613 126.656 11.38C126.656 11.1987 126.656 11.006 126.656 10.802C126.679 10.598 126.69 10.3147 126.69 9.952V7.13C126.69 6.76733 126.701 6.484 126.724 6.28C126.747 6.076 126.758 5.88333 126.758 5.702C126.781 5.52067 126.803 5.328 126.826 5.124C126.849 4.92 126.86 4.648 126.86 4.308C126.86 3.94533 126.86 3.662 126.86 3.458C126.86 3.254 126.849 3.06133 126.826 2.88C126.826 2.69867 126.826 2.506 126.826 2.302C126.826 2.098 126.826 1.81467 126.826 1.452C126.826 0.975999 127.109 0.737999 127.676 0.737999H129.104C129.603 0.737999 129.852 0.975999 129.852 1.452C129.852 1.81467 129.852 2.098 129.852 2.302C129.875 2.506 129.897 2.69867 129.92 2.88C129.943 3.06133 129.954 3.254 129.954 3.458C129.977 3.662 129.988 3.94533 129.988 4.308C129.988 4.648 129.988 4.92 129.988 5.124C129.988 5.328 129.977 5.52067 129.954 5.702C129.954 5.88333 129.954 6.076 129.954 6.28C129.954 6.484 129.954 6.76733 129.954 7.13C129.954 7.49267 129.965 7.776 129.988 7.98C130.011 8.184 130.022 8.37667 130.022 8.558C130.045 8.73933 130.067 8.932 130.09 9.136C130.113 9.34 130.124 9.612 130.124 9.952C130.124 10.3147 130.101 10.598 130.056 10.802C130.033 11.006 129.999 11.1987 129.954 11.38C129.931 11.5613 129.909 11.754 129.886 11.958C129.863 12.162 129.852 12.434 129.852 12.774ZM145.014 14.508C145.467 15.2787 145.694 16.1627 145.694 17.16C145.694 17.636 145.694 18.01 145.694 18.282C145.694 18.554 145.682 18.8147 145.66 19.064C145.66 19.2907 145.66 19.54 145.66 19.812C145.66 20.084 145.66 20.458 145.66 20.934C145.66 21.4327 145.614 21.92 145.524 22.396C145.456 22.8493 145.308 23.2687 145.082 23.654C144.832 24.062 144.515 24.402 144.13 24.674C143.767 24.9233 143.382 25.1727 142.974 25.422C142.588 25.6487 142.18 25.8527 141.75 26.034C141.319 26.238 140.866 26.34 140.39 26.34C140.14 26.34 139.936 26.3287 139.778 26.306C139.642 26.306 139.517 26.306 139.404 26.306C139.29 26.306 139.154 26.2947 138.996 26.272C138.86 26.272 138.667 26.272 138.418 26.272C137.987 26.272 137.579 26.2153 137.194 26.102C136.831 25.9887 136.468 25.8413 136.106 25.66C135.38 25.3427 134.757 24.844 134.236 24.164C133.986 23.8467 133.76 23.5067 133.556 23.144C133.374 22.7813 133.238 22.4073 133.148 22.022C133.102 21.75 133.17 21.5007 133.352 21.274C133.556 21.0247 133.794 20.9 134.066 20.9C134.247 20.9 134.394 20.9 134.508 20.9C134.621 20.9 134.723 20.9113 134.814 20.934C134.904 20.934 135.006 20.934 135.12 20.934C135.233 20.934 135.38 20.934 135.562 20.934C135.743 20.934 135.924 20.9907 136.106 21.104C136.31 21.1947 136.434 21.3307 136.48 21.512C136.616 21.9653 136.854 22.3393 137.194 22.634C137.534 22.906 137.942 23.042 138.418 23.042C138.667 23.042 138.86 23.0533 138.996 23.076C139.154 23.076 139.29 23.0873 139.404 23.11C139.517 23.11 139.642 23.1213 139.778 23.144C139.936 23.144 140.14 23.144 140.39 23.144C140.979 23.144 141.489 22.9287 141.92 22.498C142.35 22.0447 142.566 21.5233 142.566 20.934C142.566 20.458 142.566 20.084 142.566 19.812C142.566 19.54 142.554 19.2907 142.532 19.064C142.532 18.8147 142.532 18.554 142.532 18.282C142.532 18.01 142.532 17.636 142.532 17.16C142.532 16.5707 142.316 16.0493 141.886 15.596C141.478 15.12 140.979 14.882 140.39 14.882C140.14 14.882 139.936 14.9047 139.778 14.95C139.642 14.9727 139.517 15.0067 139.404 15.052C139.29 15.0747 139.154 15.1087 138.996 15.154C138.86 15.1767 138.667 15.188 138.418 15.188C137.942 15.188 137.477 15.1087 137.024 14.95C136.57 14.7687 136.151 14.5647 135.766 14.338C135.358 14.0887 134.972 13.8167 134.61 13.522C134.27 13.2047 133.975 12.842 133.726 12.434C133.499 12.0487 133.318 11.6293 133.182 11.176C133.068 10.7 133.012 10.224 133.012 9.748C133.012 9.22667 133.012 8.81867 133.012 8.524C133.034 8.20667 133.046 7.92333 133.046 7.674C133.046 7.402 133.046 7.11867 133.046 6.824C133.068 6.50667 133.08 6.08733 133.08 5.566C133.08 5.09 133.125 4.614 133.216 4.138C133.306 3.662 133.465 3.23133 133.692 2.846C133.941 2.438 134.236 2.07533 134.576 1.758C134.938 1.418 135.324 1.13467 135.732 0.907999C136.117 0.658666 136.536 0.488666 136.99 0.397999C137.466 0.307332 137.942 0.261999 138.418 0.261999C138.667 0.261999 138.86 0.273332 138.996 0.295999C139.154 0.295999 139.29 0.295999 139.404 0.295999C139.517 0.295999 139.642 0.307332 139.778 0.329998C139.936 0.329998 140.14 0.329998 140.39 0.329998C141.274 0.329998 142.044 0.511332 142.702 0.873999C143.472 1.23667 144.107 1.724 144.606 2.336C145.082 2.97067 145.388 3.70733 145.524 4.546C145.592 4.818 145.546 5.06733 145.388 5.294C145.229 5.52067 145.014 5.634 144.742 5.634C144.56 5.634 144.413 5.634 144.3 5.634C144.186 5.61133 144.084 5.6 143.994 5.6C143.903 5.57733 143.801 5.566 143.688 5.566C143.574 5.54333 143.427 5.532 143.246 5.532C143.064 5.532 142.883 5.48667 142.702 5.396C142.543 5.30533 142.441 5.16933 142.396 4.988C142.26 4.53467 142.01 4.18333 141.648 3.934C141.285 3.68467 140.866 3.56 140.39 3.56C140.14 3.56 139.936 3.54867 139.778 3.526C139.642 3.50333 139.517 3.492 139.404 3.492C139.29 3.46933 139.154 3.44667 138.996 3.424C138.86 3.40133 138.667 3.39 138.418 3.39C137.828 3.39 137.341 3.60533 136.956 4.036C136.57 4.46667 136.378 4.97667 136.378 5.566C136.378 6.08733 136.366 6.50667 136.344 6.824C136.344 7.11867 136.344 7.402 136.344 7.674C136.344 7.92333 136.332 8.20667 136.31 8.524C136.31 8.81867 136.31 9.22667 136.31 9.748C136.31 10.3373 136.514 10.8473 136.922 11.278C137.33 11.686 137.828 11.89 138.418 11.89C138.667 11.89 138.86 11.89 138.996 11.89C139.154 11.89 139.29 11.89 139.404 11.89C139.517 11.8673 139.642 11.856 139.778 11.856C139.936 11.856 140.14 11.856 140.39 11.856C140.866 11.856 141.342 11.9013 141.818 11.992C142.294 12.0827 142.724 12.2413 143.11 12.468C143.495 12.7173 143.846 13.0233 144.164 13.386C144.504 13.726 144.787 14.1 145.014 14.508Z" fill="white"/>
</svg>
