<svg width="104" height="39" viewBox="0 0 104 39" fill="none" xmlns="http://www.w3.org/2000/svg">
<rect x="0.5" y="0.5" width="103" height="38" rx="19" stroke="url(#paint0_linear_105_2)"/>
<path d="M22.825 20.55C23.1583 21.1167 23.325 21.7667 23.325 22.5C23.325 22.85 23.325 23.125 23.325 23.325C23.325 23.525 23.3167 23.7167 23.3 23.9C23.3 24.0667 23.3 24.25 23.3 24.45C23.3 24.65 23.3 24.925 23.3 25.275C23.3 25.6417 23.2667 26 23.2 26.35C23.15 26.6833 23.0417 26.9917 22.875 27.275C22.6917 27.575 22.4583 27.825 22.175 28.025C21.9083 28.2083 21.625 28.3917 21.325 28.575C21.0417 28.7417 20.7417 28.8917 20.425 29.025C20.1083 29.175 19.775 29.25 19.425 29.25C19.2417 29.25 19.0917 29.2417 18.975 29.225C18.875 29.225 18.7833 29.225 18.7 29.225C18.6167 29.225 18.5167 29.2167 18.4 29.2C18.3 29.2 18.1583 29.2 17.975 29.2C17.6583 29.2 17.3583 29.1583 17.075 29.075C16.8083 28.9917 16.5417 28.8833 16.275 28.75C15.7417 28.5167 15.2833 28.15 14.9 27.65C14.7167 27.4167 14.55 27.1667 14.4 26.9C14.2667 26.6333 14.1667 26.3583 14.1 26.075C14.0667 25.875 14.1167 25.6917 14.25 25.525C14.4 25.3417 14.575 25.25 14.775 25.25C14.9083 25.25 15.0167 25.25 15.1 25.25C15.1833 25.25 15.2583 25.2583 15.325 25.275C15.3917 25.275 15.4667 25.275 15.55 25.275C15.6333 25.275 15.7417 25.275 15.875 25.275C16.0083 25.275 16.1417 25.3167 16.275 25.4C16.425 25.4667 16.5167 25.5667 16.55 25.7C16.65 26.0333 16.825 26.3083 17.075 26.525C17.325 26.725 17.625 26.825 17.975 26.825C18.1583 26.825 18.3 26.8333 18.4 26.85C18.5167 26.85 18.6167 26.8583 18.7 26.875C18.7833 26.875 18.875 26.8833 18.975 26.9C19.0917 26.9 19.2417 26.9 19.425 26.9C19.8583 26.9 20.2333 26.7417 20.55 26.425C20.8667 26.0917 21.025 25.7083 21.025 25.275C21.025 24.925 21.025 24.65 21.025 24.45C21.025 24.25 21.0167 24.0667 21 23.9C21 23.7167 21 23.525 21 23.325C21 23.125 21 22.85 21 22.5C21 22.0667 20.8417 21.6833 20.525 21.35C20.225 21 19.8583 20.825 19.425 20.825C19.2417 20.825 19.0917 20.8417 18.975 20.875C18.875 20.8917 18.7833 20.9167 18.7 20.95C18.6167 20.9667 18.5167 20.9917 18.4 21.025C18.3 21.0417 18.1583 21.05 17.975 21.05C17.625 21.05 17.2833 20.9917 16.95 20.875C16.6167 20.7417 16.3083 20.5917 16.025 20.425C15.725 20.2417 15.4417 20.0417 15.175 19.825C14.925 19.5917 14.7083 19.325 14.525 19.025C14.3583 18.7417 14.225 18.4333 14.125 18.1C14.0417 17.75 14 17.4 14 17.05C14 16.6667 14 16.3667 14 16.15C14.0167 15.9167 14.025 15.7083 14.025 15.525C14.025 15.325 14.025 15.1167 14.025 14.9C14.0417 14.6667 14.05 14.3583 14.05 13.975C14.05 13.625 14.0833 13.275 14.15 12.925C14.2167 12.575 14.3333 12.2583 14.5 11.975C14.6833 11.675 14.9 11.4083 15.15 11.175C15.4167 10.925 15.7 10.7167 16 10.55C16.2833 10.3667 16.5917 10.2417 16.925 10.175C17.275 10.1083 17.625 10.075 17.975 10.075C18.1583 10.075 18.3 10.0833 18.4 10.1C18.5167 10.1 18.6167 10.1 18.7 10.1C18.7833 10.1 18.875 10.1083 18.975 10.125C19.0917 10.125 19.2417 10.125 19.425 10.125C20.075 10.125 20.6417 10.2583 21.125 10.525C21.6917 10.7917 22.1583 11.15 22.525 11.6C22.875 12.0667 23.1 12.6083 23.2 13.225C23.25 13.425 23.2167 13.6083 23.1 13.775C22.9833 13.9417 22.825 14.025 22.625 14.025C22.4917 14.025 22.3833 14.025 22.3 14.025C22.2167 14.0083 22.1417 14 22.075 14C22.0083 13.9833 21.9333 13.975 21.85 13.975C21.7667 13.9583 21.6583 13.95 21.525 13.95C21.3917 13.95 21.2583 13.9167 21.125 13.85C21.0083 13.7833 20.9333 13.6833 20.9 13.55C20.8 13.2167 20.6167 12.9583 20.35 12.775C20.0833 12.5917 19.775 12.5 19.425 12.5C19.2417 12.5 19.0917 12.4917 18.975 12.475C18.875 12.4583 18.7833 12.45 18.7 12.45C18.6167 12.4333 18.5167 12.4167 18.4 12.4C18.3 12.3833 18.1583 12.375 17.975 12.375C17.5417 12.375 17.1833 12.5333 16.9 12.85C16.6167 13.1667 16.475 13.5417 16.475 13.975C16.475 14.3583 16.4667 14.6667 16.45 14.9C16.45 15.1167 16.45 15.325 16.45 15.525C16.45 15.7083 16.4417 15.9167 16.425 16.15C16.425 16.3667 16.425 16.6667 16.425 17.05C16.425 17.4833 16.575 17.8583 16.875 18.175C17.175 18.475 17.5417 18.625 17.975 18.625C18.1583 18.625 18.3 18.625 18.4 18.625C18.5167 18.625 18.6167 18.625 18.7 18.625C18.7833 18.6083 18.875 18.6 18.975 18.6C19.0917 18.6 19.2417 18.6 19.425 18.6C19.775 18.6 20.125 18.6333 20.475 18.7C20.825 18.7667 21.1417 18.8833 21.425 19.05C21.7083 19.2333 21.9667 19.4583 22.2 19.725C22.45 19.975 22.6583 20.25 22.825 20.55ZM27.9234 23.975C27.9234 24.2583 27.9151 24.4833 27.8984 24.65C27.8984 24.8 27.8901 24.9417 27.8734 25.075C27.8568 25.2083 27.8401 25.3583 27.8234 25.525C27.8234 25.675 27.8234 25.8833 27.8234 26.15C27.8234 26.4167 27.8234 26.6333 27.8234 26.8C27.8401 26.95 27.8484 27.0917 27.8484 27.225C27.8651 27.3583 27.8734 27.5083 27.8734 27.675C27.8901 27.8417 27.8984 28.0583 27.8984 28.325C27.8984 28.5083 27.8401 28.6667 27.7234 28.8C27.6234 28.9333 27.4818 29 27.2984 29C27.1651 29 27.0568 29 26.9734 29C26.9068 29 26.8401 29 26.7734 29C26.7068 28.9833 26.6318 28.975 26.5484 28.975C26.4818 28.975 26.3818 28.975 26.2484 28.975C26.0651 28.975 25.9068 28.9167 25.7734 28.8C25.6568 28.6667 25.5984 28.5083 25.5984 28.325C25.5984 28.0583 25.5984 27.8417 25.5984 27.675C25.6151 27.5083 25.6318 27.3583 25.6484 27.225C25.6651 27.0917 25.6734 26.95 25.6734 26.8C25.6901 26.6333 25.6984 26.4167 25.6984 26.15C25.6984 25.8833 25.6901 25.675 25.6734 25.525C25.6568 25.3583 25.6318 25.2083 25.5984 25.075C25.5818 24.9417 25.5651 24.8 25.5484 24.65C25.5318 24.4833 25.5234 24.2583 25.5234 23.975C25.5234 23.7083 25.5318 23.5 25.5484 23.35C25.5651 23.1833 25.5818 23.0333 25.5984 22.9C25.6151 22.7667 25.6318 22.625 25.6484 22.475C25.6651 22.3083 25.6734 22.0833 25.6734 21.8C25.6734 21.5333 25.6734 21.325 25.6734 21.175C25.6734 21.0083 25.6734 20.8583 25.6734 20.725C25.6901 20.5917 25.6984 20.45 25.6984 20.3C25.6984 20.1333 25.6984 19.9167 25.6984 19.65C25.6984 19.3833 25.6901 19.1667 25.6734 19C25.6568 18.8333 25.6318 18.6833 25.5984 18.55C25.5818 18.4167 25.5651 18.275 25.5484 18.125C25.5318 17.9583 25.5234 17.7417 25.5234 17.475C25.5234 17.2083 25.5234 16.9917 25.5234 16.825C25.5401 16.6583 25.5484 16.5083 25.5484 16.375C25.5484 16.2417 25.5484 16.1 25.5484 15.95C25.5651 15.7833 25.5734 15.5667 25.5734 15.3C25.5734 15.0333 25.5734 14.825 25.5734 14.675C25.5901 14.5083 25.5984 14.3583 25.5984 14.225C25.6151 14.0917 25.6234 13.95 25.6234 13.8C25.6401 13.6333 25.6484 13.4083 25.6484 13.125C25.6484 12.8583 25.6401 12.65 25.6234 12.5C25.6234 12.3333 25.6151 12.1833 25.5984 12.05C25.5984 11.9167 25.5901 11.775 25.5734 11.625C25.5734 11.4583 25.5734 11.2333 25.5734 10.95C25.5734 10.7667 25.6401 10.625 25.7734 10.525C25.9068 10.4083 26.0651 10.35 26.2484 10.35C26.3818 10.35 26.4818 10.3583 26.5484 10.375C26.6318 10.375 26.7068 10.375 26.7734 10.375C26.8401 10.375 26.9068 10.3833 26.9734 10.4C27.0568 10.4 27.1651 10.4 27.2984 10.4C27.4818 10.4 27.6318 10.45 27.7484 10.55C27.8818 10.6333 27.9484 10.7667 27.9484 10.95C27.9484 11.2333 27.9484 11.4583 27.9484 11.625C27.9484 11.775 27.9401 11.9167 27.9234 12.05C27.9234 12.1833 27.9234 12.3333 27.9234 12.5C27.9234 12.65 27.9234 12.8583 27.9234 13.125C27.9234 13.4083 27.9151 13.6333 27.8984 13.8C27.8984 13.95 27.8901 14.0917 27.8734 14.225C27.8734 14.3583 27.8651 14.5083 27.8484 14.675C27.8484 14.825 27.8484 15.0333 27.8484 15.3C27.8484 15.5667 27.8568 15.7833 27.8734 15.95C27.8901 16.1 27.8984 16.2417 27.8984 16.375C27.9151 16.5083 27.9318 16.6583 27.9484 16.825C27.9651 16.9917 27.9734 17.2083 27.9734 17.475C27.9734 17.7417 27.9651 17.9583 27.9484 18.125C27.9318 18.275 27.9151 18.4167 27.8984 18.55C27.8984 18.6833 27.8901 18.8333 27.8734 19C27.8568 19.1667 27.8484 19.3833 27.8484 19.65C27.8484 19.9167 27.8484 20.1333 27.8484 20.3C27.8651 20.45 27.8734 20.5917 27.8734 20.725C27.8901 20.8583 27.8984 21.0083 27.8984 21.175C27.9151 21.325 27.9234 21.5333 27.9234 21.8V23.975ZM40.7156 22.9C40.7156 23.2 40.7156 23.4417 40.7156 23.625C40.7156 23.7917 40.7156 23.95 40.7156 24.1C40.7323 24.25 40.7406 24.4083 40.7406 24.575C40.7406 24.7417 40.7406 24.975 40.7406 25.275C40.7406 26.025 40.574 26.6917 40.2406 27.275C40.0573 27.5583 39.8323 27.8167 39.5656 28.05C39.3156 28.2667 39.0406 28.4667 38.7406 28.65C38.4573 28.8167 38.149 28.95 37.8156 29.05C37.499 29.1667 37.1656 29.225 36.8156 29.225C36.4656 29.225 36.1823 29.225 35.9656 29.225C35.7656 29.225 35.574 29.2167 35.3906 29.2C35.2073 29.2 35.0073 29.2 34.7906 29.2C34.5906 29.2 34.3156 29.2 33.9656 29.2C33.599 29.2 33.249 29.15 32.9156 29.05C32.599 28.95 32.299 28.8167 32.0156 28.65C31.7323 28.4667 31.474 28.25 31.2406 28C31.024 27.75 30.824 27.4833 30.6406 27.2C30.474 26.9167 30.3406 26.6167 30.2406 26.3C30.1406 25.9833 30.0906 25.6417 30.0906 25.275C30.0906 24.9917 30.0906 24.7667 30.0906 24.6C30.1073 24.4333 30.1156 24.2833 30.1156 24.15C30.1156 24.0167 30.1156 23.8667 30.1156 23.7C30.1323 23.5333 30.1406 23.3083 30.1406 23.025C30.1406 22.7417 30.1406 22.5167 30.1406 22.35C30.1406 22.1833 30.1406 22.0333 30.1406 21.9C30.1573 21.7667 30.1656 21.6167 30.1656 21.45C30.1656 21.2833 30.1656 21.0583 30.1656 20.775C30.1656 20.4917 30.1573 20.2667 30.1406 20.1C30.124 19.9333 30.1073 19.7833 30.0906 19.65C30.074 19.5 30.0573 19.3417 30.0406 19.175C30.024 19.0083 30.0156 18.7833 30.0156 18.5C30.0156 18.2167 30.0156 17.9917 30.0156 17.825C30.0323 17.6583 30.0406 17.5083 30.0406 17.375C30.0573 17.2417 30.0656 17.0917 30.0656 16.925C30.0823 16.7583 30.0906 16.5333 30.0906 16.25V13.975C30.0906 13.3083 30.274 12.675 30.6406 12.075C30.8073 11.775 30.999 11.4917 31.2156 11.225C31.4323 10.9583 31.6823 10.7333 31.9656 10.55C32.249 10.3833 32.5573 10.275 32.8906 10.225C33.2406 10.175 33.599 10.15 33.9656 10.15C34.3156 10.15 34.5906 10.15 34.7906 10.15C35.0073 10.1333 35.2073 10.1167 35.3906 10.1C35.574 10.0833 35.7656 10.075 35.9656 10.075C36.1823 10.0583 36.4656 10.05 36.8156 10.05C37.1156 10.05 37.4156 10.0833 37.7156 10.15C38.0156 10.2 38.299 10.2917 38.5656 10.425C38.8323 10.5583 39.0656 10.7333 39.2656 10.95C39.4823 11.1667 39.6823 11.3917 39.8656 11.625C40.049 11.8583 40.2156 12.1083 40.3656 12.375C40.5323 12.625 40.649 12.9 40.7156 13.2C40.749 13.4 40.6906 13.5917 40.5406 13.775C40.3906 13.9583 40.2073 14.05 39.9906 14.05C39.8573 14.05 39.749 14.05 39.6656 14.05C39.599 14.0333 39.5323 14.025 39.4656 14.025C39.399 14.0083 39.324 14 39.2406 14C39.1573 13.9833 39.049 13.975 38.9156 13.975C38.6323 13.975 38.4323 13.825 38.3156 13.525C38.2323 13.2083 38.049 12.9583 37.7656 12.775C37.4823 12.575 37.1656 12.475 36.8156 12.475C36.4656 12.475 36.1823 12.4833 35.9656 12.5C35.7656 12.5 35.574 12.5 35.3906 12.5C35.2073 12.5 35.0073 12.5083 34.7906 12.525C34.5906 12.525 34.3156 12.525 33.9656 12.525C33.5323 12.525 33.1656 12.6583 32.8656 12.925C32.5656 13.1917 32.4156 13.5417 32.4156 13.975C32.4156 14.2583 32.4156 14.4833 32.4156 14.65C32.4156 14.8167 32.4156 14.975 32.4156 15.125C32.4323 15.2583 32.4406 15.4083 32.4406 15.575C32.4406 15.7417 32.4406 15.9667 32.4406 16.25C32.4406 16.5333 32.4406 16.7583 32.4406 16.925C32.4406 17.0917 32.4323 17.2417 32.4156 17.375C32.4156 17.5083 32.4156 17.6583 32.4156 17.825C32.4156 17.9917 32.4156 18.2167 32.4156 18.5C32.4156 18.7833 32.4156 19.0083 32.4156 19.175C32.4156 19.3417 32.4156 19.5 32.4156 19.65C32.4323 19.7833 32.4406 19.9333 32.4406 20.1C32.4406 20.2667 32.4406 20.4917 32.4406 20.775C32.4406 21.0583 32.4406 21.2833 32.4406 21.45C32.4406 21.6167 32.4406 21.7667 32.4406 21.9C32.4573 22.0333 32.4656 22.1833 32.4656 22.35C32.4656 22.5167 32.4656 22.7417 32.4656 23.025C32.4656 23.3083 32.4573 23.5333 32.4406 23.7C32.424 23.8667 32.4073 24.0167 32.3906 24.15C32.3906 24.2833 32.3823 24.4333 32.3656 24.6C32.349 24.7667 32.3406 24.9917 32.3406 25.275C32.3406 25.7083 32.499 26.0667 32.8156 26.35C33.149 26.6167 33.5323 26.75 33.9656 26.75C34.3156 26.75 34.5906 26.75 34.7906 26.75C35.0073 26.75 35.2073 26.7583 35.3906 26.775C35.574 26.775 35.7656 26.775 35.9656 26.775C36.1823 26.775 36.4656 26.775 36.8156 26.775C37.249 26.775 37.624 26.6333 37.9406 26.35C38.2573 26.0667 38.4156 25.7083 38.4156 25.275C38.4156 25.0417 38.4073 24.8583 38.3906 24.725C38.3906 24.575 38.3823 24.4417 38.3656 24.325C38.349 24.2083 38.3323 24.0833 38.3156 23.95C38.3156 23.8167 38.3156 23.6333 38.3156 23.4C38.3156 23.0667 38.2073 22.7917 37.9906 22.575C37.7906 22.3417 37.524 22.225 37.1906 22.225C36.9406 22.225 36.7406 22.225 36.5906 22.225C36.4406 22.2083 36.299 22.1917 36.1656 22.175C36.049 22.1583 35.9156 22.15 35.7656 22.15C35.6323 22.1333 35.4406 22.125 35.1906 22.125C35.0073 22.125 34.849 22.0833 34.7156 22C34.5823 21.9 34.5156 21.7583 34.5156 21.575C34.5156 21.4417 34.5073 21.3417 34.4906 21.275C34.4906 21.1917 34.4906 21.1167 34.4906 21.05C34.4906 20.9833 34.4823 20.9167 34.4656 20.85C34.4656 20.7667 34.4656 20.6583 34.4656 20.525C34.4656 20.3417 34.5406 20.1917 34.6906 20.075C34.8406 19.9583 35.0073 19.9 35.1906 19.9C35.4906 19.9 35.7323 19.9 35.9156 19.9C36.099 19.9 36.2656 19.9 36.4156 19.9C36.5656 19.8833 36.7323 19.875 36.9156 19.875C37.099 19.875 37.3406 19.875 37.6406 19.875C37.9406 19.875 38.174 19.8833 38.3406 19.9C38.524 19.9 38.6906 19.9 38.8406 19.9C38.9906 19.9 39.1573 19.9083 39.3406 19.925C39.524 19.925 39.7656 19.925 40.0656 19.925C40.249 19.925 40.399 19.9833 40.5156 20.1C40.6323 20.2 40.6906 20.3417 40.6906 20.525C40.6906 20.825 40.6906 21.0583 40.6906 21.225C40.6906 21.3917 40.6906 21.55 40.6906 21.7C40.7073 21.85 40.7156 22.0167 40.7156 22.2C40.7156 22.3667 40.7156 22.6 40.7156 22.9ZM52.5365 21.8C52.5365 22.0833 52.5365 22.3083 52.5365 22.475C52.5532 22.625 52.5615 22.7667 52.5615 22.9C52.5615 23.0333 52.5615 23.1833 52.5615 23.35C52.5782 23.5 52.5865 23.7083 52.5865 23.975C52.5865 24.2583 52.5865 24.4833 52.5865 24.65C52.6032 24.8 52.6199 24.9417 52.6365 25.075C52.6532 25.2083 52.6615 25.3583 52.6615 25.525C52.6782 25.675 52.6865 25.8833 52.6865 26.15C52.6865 26.4167 52.6782 26.6333 52.6615 26.8C52.6615 26.95 52.6615 27.0917 52.6615 27.225C52.6615 27.3583 52.6532 27.5083 52.6365 27.675C52.6365 27.8417 52.6365 28.0583 52.6365 28.325C52.6365 28.5083 52.5615 28.675 52.4115 28.825C52.2782 28.9583 52.1199 29.025 51.9365 29.025C51.7199 29.025 51.5782 29.0167 51.5115 29C51.4449 29 51.2949 29 51.0615 29C50.9282 29 50.8282 28.9583 50.7615 28.875C50.6949 28.775 50.6365 28.6667 50.5865 28.55C50.4865 28.3333 50.4032 28.1667 50.3365 28.05C50.2699 27.9167 50.2115 27.7917 50.1615 27.675C50.1115 27.5583 50.0532 27.4417 49.9865 27.325C49.9199 27.1917 49.8365 27.0167 49.7365 26.8L48.9365 25.05C48.8365 24.8333 48.7532 24.6667 48.6865 24.55C48.6199 24.4167 48.5532 24.3 48.4865 24.2C48.4199 24.1 48.3532 23.9917 48.2865 23.875C48.2199 23.7417 48.1365 23.5667 48.0365 23.35C47.9365 23.1333 47.8532 22.9667 47.7865 22.85C47.7199 22.7167 47.6615 22.6 47.6115 22.5C47.5615 22.3833 47.5032 22.2667 47.4365 22.15C47.3699 22.0167 47.2865 21.8333 47.1865 21.6C47.0865 21.3833 47.0115 21.2083 46.9615 21.075C46.9115 20.9417 46.8615 20.825 46.8115 20.725C46.7782 20.6083 46.7365 20.4833 46.6865 20.35C46.6365 20.2167 46.5615 20.0417 46.4615 19.825C46.3615 19.6083 46.2782 19.4417 46.2115 19.325C46.1449 19.1917 46.0782 19.075 46.0115 18.975C45.9615 18.8583 45.9032 18.7417 45.8365 18.625C45.7699 18.4917 45.6865 18.3167 45.5865 18.1C45.5199 17.9667 45.4115 17.9083 45.2615 17.925C45.1282 17.9417 45.0615 18.025 45.0615 18.175V20.2C45.0615 20.45 45.0699 20.65 45.0865 20.8C45.1032 20.95 45.1199 21.0917 45.1365 21.225C45.1532 21.3417 45.1699 21.475 45.1865 21.625C45.2032 21.775 45.2115 21.975 45.2115 22.225C45.2115 22.475 45.2115 22.675 45.2115 22.825C45.2115 22.975 45.2032 23.1167 45.1865 23.25C45.1865 23.3833 45.1865 23.525 45.1865 23.675C45.1865 23.825 45.1865 24.025 45.1865 24.275C45.1865 24.525 45.1865 24.725 45.1865 24.875C45.1865 25.025 45.1782 25.1667 45.1615 25.3C45.1615 25.4167 45.1615 25.55 45.1615 25.7C45.1615 25.85 45.1615 26.05 45.1615 26.3C45.1615 26.55 45.1532 26.75 45.1365 26.9C45.1365 27.05 45.1365 27.1917 45.1365 27.325C45.1365 27.4417 45.1282 27.575 45.1115 27.725C45.1115 27.875 45.1115 28.075 45.1115 28.325C45.1115 28.5083 45.0532 28.65 44.9365 28.75C44.8199 28.85 44.6699 28.9 44.4865 28.9C44.3532 28.9 44.2449 28.9 44.1615 28.9C44.0949 28.9 44.0282 28.9 43.9615 28.9C43.8949 28.8833 43.8199 28.875 43.7365 28.875C43.6699 28.875 43.5699 28.875 43.4365 28.875C43.2532 28.875 43.1032 28.8333 42.9865 28.75C42.8865 28.65 42.8365 28.5083 42.8365 28.325C42.8365 28.0583 42.8282 27.8417 42.8115 27.675C42.8115 27.5083 42.8115 27.3583 42.8115 27.225C42.8115 27.0917 42.8032 26.95 42.7865 26.8C42.7865 26.6333 42.7865 26.4167 42.7865 26.15C42.7865 25.8833 42.7865 25.675 42.7865 25.525C42.8032 25.3583 42.8199 25.2083 42.8365 25.075C42.8532 24.9417 42.8615 24.8 42.8615 24.65C42.8782 24.4833 42.8865 24.2583 42.8865 23.975C42.8865 23.7083 42.8699 23.5 42.8365 23.35C42.8199 23.1833 42.7949 23.0333 42.7615 22.9C42.7449 22.7667 42.7282 22.625 42.7115 22.475C42.6949 22.3083 42.6865 22.0833 42.6865 21.8C42.6865 21.5333 42.6865 21.325 42.6865 21.175C42.6865 21.0083 42.6865 20.8583 42.6865 20.725C42.7032 20.5917 42.7115 20.45 42.7115 20.3C42.7115 20.1333 42.7115 19.9167 42.7115 19.65C42.7115 19.3833 42.7199 19.1667 42.7365 19C42.7532 18.8333 42.7699 18.6833 42.7865 18.55C42.8032 18.4167 42.8199 18.275 42.8365 18.125C42.8532 17.9583 42.8615 17.7417 42.8615 17.475C42.8615 17.2083 42.8532 16.9917 42.8365 16.825C42.8365 16.6583 42.8282 16.5083 42.8115 16.375C42.8115 16.2417 42.8032 16.1 42.7865 15.95C42.7865 15.7833 42.7865 15.5667 42.7865 15.3C42.7865 15.0333 42.7782 14.825 42.7615 14.675C42.7615 14.5083 42.7615 14.3583 42.7615 14.225C42.7615 14.0917 42.7532 13.95 42.7365 13.8C42.7365 13.6333 42.7365 13.4083 42.7365 13.125V10.95C42.7365 10.7667 42.8032 10.6083 42.9365 10.475C43.0865 10.3417 43.2532 10.275 43.4365 10.275C43.6532 10.275 43.7949 10.2667 43.8615 10.25C43.9282 10.2333 44.0699 10.225 44.2865 10.225C44.4199 10.225 44.5449 10.275 44.6615 10.375C44.7782 10.4583 44.8615 10.5583 44.9115 10.675C45.0115 10.8917 45.0949 11.0667 45.1615 11.2C45.2282 11.3167 45.2865 11.4333 45.3365 11.55C45.4032 11.65 45.4699 11.7667 45.5365 11.9C45.6032 12.0167 45.6865 12.1833 45.7865 12.4C45.8865 12.6167 45.9615 12.7917 46.0115 12.925C46.0615 13.0583 46.1032 13.1833 46.1365 13.3C46.1699 13.4167 46.2115 13.5417 46.2615 13.675C46.3115 13.8083 46.3865 13.9833 46.4865 14.2C46.5865 14.4167 46.6699 14.5917 46.7365 14.725C46.8032 14.8417 46.8615 14.9583 46.9115 15.075C46.9782 15.175 47.0449 15.2917 47.1115 15.425C47.1782 15.5417 47.2615 15.7083 47.3615 15.925C47.4615 16.1417 47.5282 16.3167 47.5615 16.45C47.6115 16.5833 47.6449 16.7167 47.6615 16.85C47.6949 16.9667 47.7282 17.0917 47.7615 17.225C47.8115 17.3583 47.8865 17.5333 47.9865 17.75C48.0865 17.9667 48.1699 18.1417 48.2365 18.275C48.3199 18.3917 48.3949 18.5 48.4615 18.6C48.5449 18.7 48.6282 18.8083 48.7115 18.925C48.7949 19.0417 48.8865 19.2083 48.9865 19.425C49.0865 19.6417 49.1615 19.8167 49.2115 19.95C49.2782 20.0833 49.3282 20.2083 49.3615 20.325C49.4115 20.425 49.4615 20.5417 49.5115 20.675C49.5782 20.8083 49.6615 20.9833 49.7615 21.2C49.8282 21.3333 49.9115 21.3917 50.0115 21.375C50.1282 21.3417 50.1865 21.25 50.1865 21.1C50.1865 20.85 50.1865 20.65 50.1865 20.5C50.2032 20.35 50.2115 20.2167 50.2115 20.1C50.2115 19.9667 50.2115 19.825 50.2115 19.675C50.2282 19.525 50.2365 19.325 50.2365 19.075C50.2365 18.825 50.2449 18.625 50.2615 18.475C50.2782 18.325 50.2865 18.1917 50.2865 18.075C50.3032 17.9417 50.3199 17.8 50.3365 17.65C50.3532 17.5 50.3615 17.3 50.3615 17.05C50.3615 16.8 50.3449 16.6 50.3115 16.45C50.2949 16.3 50.2699 16.1667 50.2365 16.05C50.2199 15.9167 50.1949 15.775 50.1615 15.625C50.1449 15.475 50.1365 15.275 50.1365 15.025C50.1365 14.775 50.1365 14.575 50.1365 14.425C50.1532 14.275 50.1699 14.1333 50.1865 14C50.2032 13.8667 50.2115 13.725 50.2115 13.575C50.2282 13.425 50.2365 13.225 50.2365 12.975C50.2365 12.725 50.2449 12.525 50.2615 12.375C50.2782 12.225 50.2865 12.0917 50.2865 11.975C50.3032 11.8417 50.3199 11.7 50.3365 11.55C50.3532 11.4 50.3615 11.2 50.3615 10.95C50.3615 10.7667 50.4032 10.625 50.4865 10.525C50.5699 10.4083 50.7032 10.35 50.8865 10.35C51.0199 10.35 51.1199 10.35 51.1865 10.35C51.2699 10.3333 51.3449 10.325 51.4115 10.325C51.4782 10.325 51.5449 10.325 51.6115 10.325C51.6949 10.3083 51.8032 10.3 51.9365 10.3C52.1199 10.3 52.2532 10.3667 52.3365 10.5C52.4365 10.6167 52.4865 10.7667 52.4865 10.95C52.4865 11.2333 52.4865 11.4583 52.4865 11.625C52.5032 11.775 52.5199 11.9167 52.5365 12.05C52.5532 12.1833 52.5615 12.3333 52.5615 12.5C52.5782 12.65 52.5865 12.8583 52.5865 13.125C52.5865 13.4083 52.5865 13.6333 52.5865 13.8C52.6032 13.95 52.6115 14.0917 52.6115 14.225C52.6282 14.3583 52.6365 14.5083 52.6365 14.675C52.6532 14.825 52.6615 15.0333 52.6615 15.3C52.6615 15.5667 52.6615 15.7833 52.6615 15.95C52.6615 16.1 52.6615 16.2417 52.6615 16.375C52.6782 16.5083 52.6865 16.6583 52.6865 16.825C52.6865 16.9917 52.6865 17.2083 52.6865 17.475C52.6865 17.7417 52.6782 17.9583 52.6615 18.125C52.6615 18.275 52.6615 18.4167 52.6615 18.55C52.6615 18.6833 52.6532 18.8333 52.6365 19C52.6365 19.1667 52.6365 19.3833 52.6365 19.65C52.6365 19.9167 52.6282 20.1333 52.6115 20.3C52.6115 20.45 52.6032 20.5917 52.5865 20.725C52.5699 20.8583 52.5532 21.0083 52.5365 21.175C52.5365 21.325 52.5365 21.5333 52.5365 21.8ZM74.6404 19.275C74.6404 19.5417 74.6488 19.75 74.6654 19.9C74.6821 20.05 74.6904 20.1917 74.6904 20.325C74.7071 20.4583 74.7238 20.6 74.7404 20.75C74.7571 20.9 74.7654 21.1083 74.7654 21.375C74.7654 21.625 74.7571 21.825 74.7404 21.975C74.7238 22.125 74.7071 22.2667 74.6904 22.4C74.6738 22.5333 74.6571 22.675 74.6404 22.825C74.6238 22.975 74.6154 23.1833 74.6154 23.45C74.6154 23.7167 74.6154 23.925 74.6154 24.075C74.6154 24.225 74.6154 24.3667 74.6154 24.5C74.6321 24.6333 74.6404 24.775 74.6404 24.925C74.6404 25.075 74.6404 25.275 74.6404 25.525C74.6404 25.8917 74.6154 26.2417 74.5654 26.575C74.5321 26.9083 74.4238 27.2167 74.2404 27.5C74.0738 27.8 73.8654 28.075 73.6154 28.325C73.3654 28.575 73.0988 28.7833 72.8154 28.95C72.5321 29.1333 72.2154 29.25 71.8654 29.3C71.5321 29.35 71.1821 29.375 70.8154 29.375H69.4654C69.0988 29.375 68.7571 29.325 68.4404 29.225C68.1238 29.1417 67.8238 29.0167 67.5404 28.85C67.2404 28.6667 66.9654 28.4667 66.7154 28.25C66.4654 28.0333 66.2571 27.775 66.0904 27.475C65.9071 27.1917 65.7821 26.8917 65.7154 26.575C65.6488 26.2417 65.6154 25.8917 65.6154 25.525C65.6154 25.275 65.6071 25.075 65.5904 24.925C65.5738 24.775 65.5488 24.6333 65.5154 24.5C65.4988 24.3667 65.4821 24.225 65.4654 24.075C65.4488 23.925 65.4404 23.7167 65.4404 23.45V21.375C65.4404 21.1083 65.4488 20.9 65.4654 20.75C65.4988 20.6 65.5238 20.4583 65.5404 20.325C65.5738 20.1917 65.5988 20.05 65.6154 19.9C65.6488 19.75 65.6654 19.5417 65.6654 19.275C65.6654 19.025 65.6571 18.825 65.6404 18.675C65.6404 18.525 65.6321 18.3833 65.6154 18.25C65.5988 18.1167 65.5821 17.975 65.5654 17.825C65.5654 17.675 65.5654 17.4667 65.5654 17.2C65.5654 16.9333 65.5571 16.725 65.5404 16.575C65.5238 16.425 65.5071 16.2833 65.4904 16.15C65.4904 16.0167 65.4821 15.875 65.4654 15.725C65.4488 15.575 65.4404 15.375 65.4404 15.125C65.4404 14.8583 65.4488 14.65 65.4654 14.5C65.4821 14.35 65.4988 14.2083 65.5154 14.075C65.5488 13.9417 65.5738 13.8 65.5904 13.65C65.6238 13.5 65.6404 13.3 65.6404 13.05C65.6404 12.7833 65.6321 12.575 65.6154 12.425C65.5988 12.275 65.5821 12.1333 65.5654 12C65.5654 11.8667 65.5571 11.725 65.5404 11.575C65.5238 11.425 65.5154 11.2167 65.5154 10.95C65.5154 10.7667 65.5821 10.6 65.7154 10.45C65.8488 10.3 66.0071 10.225 66.1904 10.225C66.3238 10.225 66.4238 10.225 66.4904 10.225C66.5738 10.225 66.6488 10.2333 66.7154 10.25C66.7821 10.25 66.8488 10.25 66.9154 10.25C66.9988 10.25 67.1071 10.25 67.2404 10.25C67.4238 10.25 67.5738 10.325 67.6904 10.475C67.8238 10.6083 67.8904 10.7667 67.8904 10.95C67.8904 11.2167 67.8821 11.425 67.8654 11.575C67.8654 11.725 67.8654 11.8667 67.8654 12C67.8654 12.1333 67.8571 12.275 67.8404 12.425C67.8404 12.575 67.8404 12.7833 67.8404 13.05C67.8404 13.3 67.8404 13.5 67.8404 13.65C67.8571 13.8 67.8654 13.9417 67.8654 14.075C67.8821 14.2083 67.8904 14.35 67.8904 14.5C67.9071 14.65 67.9154 14.8583 67.9154 15.125C67.9154 15.3917 67.9071 15.6 67.8904 15.75C67.8904 15.9 67.8904 16.0417 67.8904 16.175C67.8904 16.3083 67.8821 16.45 67.8654 16.6C67.8654 16.75 67.8654 16.95 67.8654 17.2C67.8654 17.4667 67.8654 17.675 67.8654 17.825C67.8821 17.975 67.8988 18.1167 67.9154 18.25C67.9321 18.3833 67.9404 18.525 67.9404 18.675C67.9571 18.825 67.9654 19.025 67.9654 19.275C67.9654 19.5417 67.9571 19.75 67.9404 19.9C67.9238 20.05 67.8988 20.1917 67.8654 20.325C67.8488 20.4583 67.8321 20.6 67.8154 20.75C67.7988 20.9 67.7904 21.1083 67.7904 21.375V23.45C67.7904 23.7167 67.7988 23.925 67.8154 24.075C67.8321 24.225 67.8488 24.3667 67.8654 24.5C67.8988 24.6333 67.9238 24.775 67.9404 24.925C67.9738 25.075 67.9904 25.275 67.9904 25.525C67.9904 25.9583 68.1238 26.3083 68.3904 26.575C68.6738 26.8417 69.0321 26.975 69.4654 26.975C69.6321 26.975 69.7654 26.975 69.8654 26.975C69.9654 26.975 70.0571 26.9833 70.1404 27C70.2238 27 70.3154 27 70.4154 27C70.5154 27 70.6488 27 70.8154 27C71.2488 27 71.6321 26.8667 71.9654 26.6C72.3154 26.3167 72.4904 25.9583 72.4904 25.525C72.4904 25.275 72.4821 25.075 72.4654 24.925C72.4488 24.775 72.4238 24.6333 72.3904 24.5C72.3738 24.3667 72.3571 24.225 72.3404 24.075C72.3238 23.925 72.3154 23.7167 72.3154 23.45C72.3154 23.1833 72.3238 22.975 72.3404 22.825C72.3571 22.675 72.3738 22.5333 72.3904 22.4C72.4071 22.2667 72.4238 22.125 72.4404 21.975C72.4571 21.825 72.4654 21.625 72.4654 21.375C72.4654 21.1083 72.4488 20.9 72.4154 20.75C72.3988 20.6 72.3738 20.4583 72.3404 20.325C72.3238 20.1917 72.3071 20.05 72.2904 19.9C72.2738 19.75 72.2654 19.5417 72.2654 19.275C72.2654 19.025 72.2654 18.825 72.2654 18.675C72.2821 18.525 72.2904 18.3833 72.2904 18.25C72.2904 18.1167 72.2904 17.975 72.2904 17.825C72.3071 17.675 72.3154 17.4667 72.3154 17.2V15.125C72.3154 14.8583 72.3238 14.65 72.3404 14.5C72.3571 14.35 72.3654 14.2083 72.3654 14.075C72.3821 13.9417 72.3988 13.8 72.4154 13.65C72.4321 13.5 72.4404 13.3 72.4404 13.05C72.4404 12.7833 72.4404 12.575 72.4404 12.425C72.4404 12.275 72.4321 12.1333 72.4154 12C72.4154 11.8667 72.4154 11.725 72.4154 11.575C72.4154 11.425 72.4154 11.2167 72.4154 10.95C72.4154 10.6 72.6238 10.425 73.0404 10.425H74.0904C74.4571 10.425 74.6404 10.6 74.6404 10.95C74.6404 11.2167 74.6404 11.425 74.6404 11.575C74.6571 11.725 74.6738 11.8667 74.6904 12C74.7071 12.1333 74.7154 12.275 74.7154 12.425C74.7321 12.575 74.7404 12.7833 74.7404 13.05C74.7404 13.3 74.7404 13.5 74.7404 13.65C74.7404 13.8 74.7321 13.9417 74.7154 14.075C74.7154 14.2083 74.7154 14.35 74.7154 14.5C74.7154 14.65 74.7154 14.8583 74.7154 15.125C74.7154 15.3917 74.7238 15.6 74.7404 15.75C74.7571 15.9 74.7654 16.0417 74.7654 16.175C74.7821 16.3083 74.7988 16.45 74.8154 16.6C74.8321 16.75 74.8404 16.95 74.8404 17.2C74.8404 17.4667 74.8238 17.675 74.7904 17.825C74.7738 17.975 74.7488 18.1167 74.7154 18.25C74.6988 18.3833 74.6821 18.525 74.6654 18.675C74.6488 18.825 74.6404 19.025 74.6404 19.275ZM86.2889 12.25C86.4555 12.5333 86.5805 12.8417 86.6639 13.175C86.7639 13.5083 86.8139 13.8583 86.8139 14.225C86.8139 14.4417 86.8055 14.6167 86.7889 14.75C86.7722 14.8667 86.7555 14.9833 86.7389 15.1C86.7389 15.2167 86.7305 15.3417 86.7139 15.475C86.6972 15.6083 86.6889 15.7833 86.6889 16V17.75C86.6889 18.45 86.5222 19.0917 86.1889 19.675C86.0055 19.975 85.8139 20.2667 85.6139 20.55C85.4139 20.8333 85.1639 21.0583 84.8639 21.225C84.5805 21.4083 84.2639 21.5417 83.9139 21.625C83.5639 21.6917 83.2139 21.725 82.8639 21.725C82.5805 21.725 82.3555 21.725 82.1889 21.725C82.0222 21.725 81.8639 21.7333 81.7139 21.75C81.5805 21.75 81.4305 21.75 81.2639 21.75C81.0972 21.75 80.8722 21.75 80.5889 21.75C80.2555 21.75 79.9555 21.85 79.6889 22.05C79.4389 22.25 79.3139 22.5167 79.3139 22.85C79.3139 23.0833 79.3222 23.2667 79.3389 23.4C79.3555 23.5167 79.3722 23.6333 79.3889 23.75C79.4222 23.8667 79.4472 23.9917 79.4639 24.125C79.4805 24.2583 79.4889 24.4417 79.4889 24.675C79.4889 24.9083 79.4889 25.0917 79.4889 25.225C79.4889 25.3417 79.4889 25.4583 79.4889 25.575C79.5055 25.6917 79.5139 25.8167 79.5139 25.95C79.5139 26.0833 79.5139 26.2667 79.5139 26.5C79.5139 26.7333 79.5055 26.9167 79.4889 27.05C79.4889 27.1667 79.4889 27.2833 79.4889 27.4C79.4889 27.5167 79.4805 27.6417 79.4639 27.775C79.4639 27.9083 79.4639 28.0917 79.4639 28.325C79.4639 28.5083 79.3889 28.675 79.2389 28.825C79.1055 28.9583 78.9472 29.025 78.7639 29.025C78.6305 29.025 78.5222 29.0167 78.4389 29C78.3722 28.9833 78.3055 28.9667 78.2389 28.95C78.1722 28.9167 78.0972 28.8917 78.0139 28.875C77.9472 28.8583 77.8472 28.85 77.7139 28.85C77.5305 28.85 77.3722 28.8083 77.2389 28.725C77.1055 28.6417 77.0389 28.5083 77.0389 28.325V26.15C77.0389 25.8833 77.0305 25.675 77.0139 25.525C77.0139 25.3583 77.0055 25.2083 76.9889 25.075C76.9889 24.9417 76.9805 24.8 76.9639 24.65C76.9639 24.4833 76.9639 24.2583 76.9639 23.975C76.9639 23.7083 76.9639 23.5 76.9639 23.35C76.9805 23.1833 76.9889 23.0333 76.9889 22.9C76.9889 22.7667 76.9889 22.625 76.9889 22.475C77.0055 22.3083 77.0139 22.0833 77.0139 21.8C77.0139 21.5333 77.0222 21.325 77.0389 21.175C77.0555 21.0083 77.0722 20.8583 77.0889 20.725C77.1055 20.5917 77.1222 20.45 77.1389 20.3C77.1555 20.1333 77.1639 19.9167 77.1639 19.65C77.1639 19.3833 77.1555 19.1667 77.1389 19C77.1222 18.8333 77.1055 18.6833 77.0889 18.55C77.0722 18.4167 77.0555 18.275 77.0389 18.125C77.0222 17.9583 77.0139 17.7417 77.0139 17.475C77.0139 17.2083 77.0222 16.9917 77.0389 16.825C77.0555 16.6583 77.0722 16.5083 77.0889 16.375C77.1055 16.2417 77.1222 16.1 77.1389 15.95C77.1555 15.7833 77.1639 15.5667 77.1639 15.3C77.1639 15.0333 77.1555 14.825 77.1389 14.675C77.1222 14.5083 77.1055 14.3583 77.0889 14.225C77.0889 14.0917 77.0805 13.95 77.0639 13.8C77.0472 13.6333 77.0389 13.4083 77.0389 13.125V10.95C77.0389 10.7667 77.1055 10.6 77.2389 10.45C77.3722 10.2833 77.5305 10.2 77.7139 10.2C78.0305 10.2 78.2805 10.2167 78.4639 10.25C78.6639 10.2667 78.8472 10.2917 79.0139 10.325C79.1805 10.3417 79.3555 10.3583 79.5389 10.375C79.7222 10.3917 79.9722 10.4 80.2889 10.4C80.6055 10.4 80.8555 10.4 81.0389 10.4C81.2222 10.4 81.3972 10.4083 81.5639 10.425C81.7305 10.425 81.9055 10.425 82.0889 10.425C82.2722 10.425 82.5305 10.425 82.8639 10.425C83.2139 10.425 83.5639 10.4417 83.9139 10.475C84.2639 10.4917 84.5805 10.5833 84.8639 10.75C85.1472 10.9333 85.4055 11.1583 85.6389 11.425C85.8889 11.675 86.1055 11.95 86.2889 12.25ZM82.8639 19.4C83.0805 19.4 83.2889 19.3583 83.4889 19.275C83.6889 19.175 83.8639 19.05 84.0139 18.9C84.1639 18.75 84.2805 18.575 84.3639 18.375C84.4639 18.175 84.5139 17.9667 84.5139 17.75C84.5139 17.5333 84.5055 17.3667 84.4889 17.25C84.4722 17.1167 84.4472 16.9917 84.4139 16.875C84.3972 16.7583 84.3722 16.6417 84.3389 16.525C84.3222 16.3917 84.3139 16.2167 84.3139 16C84.2972 15.7833 84.2889 15.6083 84.2889 15.475C84.3055 15.3417 84.3139 15.2167 84.3139 15.1C84.3305 14.9833 84.3389 14.8667 84.3389 14.75C84.3555 14.6167 84.3639 14.4417 84.3639 14.225C84.3639 13.7917 84.2222 13.4083 83.9389 13.075C83.6555 12.725 83.2972 12.55 82.8639 12.55C82.5805 12.55 82.3555 12.5583 82.1889 12.575C82.0222 12.5917 81.8639 12.6083 81.7139 12.625C81.5805 12.6417 81.4305 12.6583 81.2639 12.675C81.0972 12.6917 80.8722 12.7 80.5889 12.7C80.2555 12.7 79.9639 12.8083 79.7139 13.025C79.4639 13.225 79.3389 13.4917 79.3389 13.825C79.3389 14.0917 79.3472 14.3083 79.3639 14.475C79.3805 14.625 79.3889 14.7667 79.3889 14.9C79.4055 15.0333 79.4222 15.1833 79.4389 15.35C79.4555 15.5167 79.4639 15.7333 79.4639 16C79.4639 16.2667 79.4639 16.4833 79.4639 16.65C79.4639 16.8 79.4555 16.9417 79.4389 17.075C79.4389 17.2083 79.4389 17.3583 79.4389 17.525C79.4389 17.675 79.4389 17.8833 79.4389 18.15C79.4389 18.4833 79.5472 18.75 79.7639 18.95C79.9805 19.1333 80.2555 19.225 80.5889 19.225C80.8722 19.225 81.0972 19.2333 81.2639 19.25C81.4305 19.2667 81.5805 19.2917 81.7139 19.325C81.8639 19.3417 82.0222 19.3583 82.1889 19.375C82.3555 19.3917 82.5805 19.4 82.8639 19.4Z" fill="white"/>
<defs>
<linearGradient id="paint0_linear_105_2" x1="-13.5" y1="17.5" x2="120" y2="19" gradientUnits="userSpaceOnUse">
<stop stop-color="#C110FF"/>
<stop offset="1" stop-color="#0029FF"/>
</linearGradient>
</defs>
</svg>
