<svg width="236" height="37" viewBox="0 0 236 37" fill="none" xmlns="http://www.w3.org/2000/svg">
<rect width="132" height="37" rx="11" fill="#252525"/>
<path d="M21.0625 12.7187V11H33.0625V12.7187H28.0313V27H26.0938V12.7187H21.0625ZM34.5566 31.5V15H36.3379V16.9062H36.5566C36.6921 16.6979 36.8796 16.4323 37.1191 16.1094C37.3639 15.7812 37.7129 15.4896 38.166 15.2344C38.6243 14.974 39.2441 14.8438 40.0254 14.8438C41.0358 14.8438 41.9264 15.0964 42.6973 15.6016C43.4681 16.1068 44.0697 16.8229 44.502 17.75C44.9342 18.6771 45.1504 19.7708 45.1504 21.0313C45.1504 22.3021 44.9342 23.4036 44.502 24.3359C44.0697 25.263 43.4707 25.9818 42.7051 26.4922C41.9395 26.9974 41.0566 27.25 40.0566 27.25C39.2858 27.25 38.6686 27.1224 38.2051 26.8672C37.7415 26.6068 37.3848 26.3125 37.1348 25.9844C36.8848 25.651 36.6921 25.375 36.5566 25.1562H36.4004V31.5H34.5566ZM36.3691 21C36.3691 21.9062 36.502 22.7057 36.7676 23.3984C37.0332 24.0859 37.4212 24.625 37.9316 25.0156C38.4421 25.401 39.0671 25.5938 39.8066 25.5938C40.5775 25.5938 41.2207 25.3906 41.7363 24.9844C42.2572 24.5729 42.6478 24.0208 42.9082 23.3281C43.1738 22.6302 43.3066 21.8542 43.3066 21C43.3066 20.1562 43.1764 19.3958 42.916 18.7187C42.6608 18.0365 42.2728 17.4974 41.752 17.1016C41.2363 16.7005 40.5879 16.5 39.8066 16.5C39.0566 16.5 38.4264 16.6901 37.916 17.0703C37.4056 17.4453 37.0202 17.9714 36.7598 18.6484C36.4993 19.3203 36.3691 20.1042 36.3691 21ZM52.9941 27.25C51.8379 27.25 50.8405 26.9948 50.002 26.4844C49.1686 25.9688 48.5254 25.25 48.0723 24.3281C47.6243 23.401 47.4004 22.3229 47.4004 21.0938C47.4004 19.8646 47.6243 18.7812 48.0723 17.8437C48.5254 16.901 49.1556 16.1667 49.9629 15.6406C50.7754 15.1094 51.7233 14.8438 52.8066 14.8438C53.4316 14.8438 54.0488 14.9479 54.6582 15.1562C55.2676 15.3646 55.8223 15.7031 56.3223 16.1719C56.8223 16.6354 57.2207 17.25 57.5176 18.0156C57.8145 18.7812 57.9629 19.724 57.9629 20.8437V21.625H48.7129V20.0312H56.0879C56.0879 19.3542 55.9525 18.75 55.6816 18.2187C55.416 17.6875 55.0358 17.2682 54.541 16.9609C54.0514 16.6536 53.4733 16.5 52.8066 16.5C52.0723 16.5 51.4368 16.6823 50.9004 17.0469C50.3691 17.4062 49.9603 17.875 49.6738 18.4531C49.3874 19.0312 49.2441 19.651 49.2441 20.3125V21.375C49.2441 22.2813 49.4004 23.0495 49.7129 23.6797C50.0306 24.3047 50.4707 24.7812 51.0332 25.1094C51.5957 25.4323 52.2493 25.5938 52.9941 25.5938C53.4785 25.5938 53.916 25.526 54.3066 25.3906C54.7025 25.25 55.0436 25.0417 55.3301 24.7656C55.6165 24.4844 55.8379 24.1354 55.9941 23.7187L57.7754 24.2188C57.5879 24.8229 57.2728 25.3542 56.8301 25.8125C56.3874 26.2656 55.8405 26.6198 55.1895 26.875C54.5384 27.125 53.8066 27.25 52.9941 27.25ZM62.6113 24.2812L68.3926 15H70.5176V27H68.6738V17.7188L62.9238 27H60.7676V15H62.6113V24.2812ZM67.1738 11H68.8926C68.8926 11.8437 68.6009 12.5339 68.0176 13.0703C67.4342 13.6068 66.6426 13.875 65.6426 13.875C64.6582 13.875 63.8743 13.6068 63.291 13.0703C62.7129 12.5339 62.4238 11.8437 62.4238 11H64.1426C64.1426 11.4062 64.2546 11.763 64.4785 12.0703C64.7077 12.3776 65.0957 12.5312 65.6426 12.5312C66.1895 12.5312 66.5801 12.3776 66.8145 12.0703C67.054 11.763 67.1738 11.4062 67.1738 11ZM72.832 27V25.2812H73.2695C73.6289 25.2812 73.9284 25.2109 74.168 25.0703C74.4076 24.9245 74.6003 24.6719 74.7461 24.3125C74.8971 23.9479 75.0117 23.4427 75.0898 22.7969C75.1732 22.1458 75.2331 21.3177 75.2695 20.3125L75.4883 15H83.4883V27H81.6445V16.7187H77.2383L77.0508 21C77.0091 21.9844 76.9206 22.8516 76.7852 23.6016C76.6549 24.3464 76.4544 24.9714 76.1836 25.4766C75.918 25.9818 75.5638 26.362 75.1211 26.6172C74.6784 26.8724 74.1237 27 73.457 27H72.832ZM91.9023 27.25C90.7461 27.25 89.7487 26.9948 88.9102 26.4844C88.0768 25.9688 87.4336 25.25 86.9805 24.3281C86.5326 23.401 86.3086 22.3229 86.3086 21.0938C86.3086 19.8646 86.5326 18.7812 86.9805 17.8437C87.4336 16.901 88.0638 16.1667 88.8711 15.6406C89.6836 15.1094 90.6315 14.8438 91.7148 14.8438C92.3398 14.8438 92.957 14.9479 93.5664 15.1562C94.1758 15.3646 94.7305 15.7031 95.2305 16.1719C95.7305 16.6354 96.1289 17.25 96.4258 18.0156C96.7227 18.7812 96.8711 19.724 96.8711 20.8437V21.625H87.6211V20.0312H94.9961C94.9961 19.3542 94.8607 18.75 94.5898 18.2187C94.3242 17.6875 93.944 17.2682 93.4492 16.9609C92.9596 16.6536 92.3815 16.5 91.7148 16.5C90.9805 16.5 90.3451 16.6823 89.8086 17.0469C89.2773 17.4062 88.8685 17.875 88.582 18.4531C88.2956 19.0312 88.1523 19.651 88.1523 20.3125V21.375C88.1523 22.2813 88.3086 23.0495 88.6211 23.6797C88.9388 24.3047 89.3789 24.7812 89.9414 25.1094C90.5039 25.4323 91.1576 25.5938 91.9023 25.5938C92.3867 25.5938 92.8242 25.526 93.2148 25.3906C93.6107 25.25 93.9518 25.0417 94.2383 24.7656C94.5247 24.4844 94.7461 24.1354 94.9023 23.7187L96.6836 24.2188C96.4961 24.8229 96.181 25.3542 95.7383 25.8125C95.2956 26.2656 94.7487 26.6198 94.0977 26.875C93.4466 27.125 92.7148 27.25 91.9023 27.25ZM99.6758 31.5V15H101.457V16.9062H101.676C101.811 16.6979 101.999 16.4323 102.238 16.1094C102.483 15.7812 102.832 15.4896 103.285 15.2344C103.743 14.974 104.363 14.8438 105.145 14.8438C106.155 14.8438 107.046 15.0964 107.816 15.6016C108.587 16.1068 109.189 16.8229 109.621 17.75C110.053 18.6771 110.27 19.7708 110.27 21.0313C110.27 22.3021 110.053 23.4036 109.621 24.3359C109.189 25.263 108.59 25.9818 107.824 26.4922C107.059 26.9974 106.176 27.25 105.176 27.25C104.405 27.25 103.788 27.1224 103.324 26.8672C102.861 26.6068 102.504 26.3125 102.254 25.9844C102.004 25.651 101.811 25.375 101.676 25.1562H101.52V31.5H99.6758ZM101.488 21C101.488 21.9062 101.621 22.7057 101.887 23.3984C102.152 24.0859 102.54 24.625 103.051 25.0156C103.561 25.401 104.186 25.5938 104.926 25.5938C105.697 25.5938 106.34 25.3906 106.855 24.9844C107.376 24.5729 107.767 24.0208 108.027 23.3281C108.293 22.6302 108.426 21.8542 108.426 21C108.426 20.1562 108.296 19.3958 108.035 18.7187C107.78 18.0365 107.392 17.4974 106.871 17.1016C106.355 16.7005 105.707 16.5 104.926 16.5C104.176 16.5 103.546 16.6901 103.035 17.0703C102.525 17.4453 102.139 17.9714 101.879 18.6484C101.618 19.3203 101.488 20.1042 101.488 21Z" fill="white" fill-opacity="0.96"/>
<path d="M165.126 10.252H174.708V24.1416H176.126V29.6738H174.268V26H163.858V29.6738H162V24.1416H163.225C164.492 22.2295 165.126 18.3659 165.126 12.5508V10.252ZM172.624 12.1104H167.135V12.916C167.135 14.2552 167.013 16.0885 166.77 18.416C166.533 20.7363 166.064 22.6449 165.362 24.1416H172.624V12.1104ZM186.17 22.3262L188.168 22.5732C187.853 23.7406 187.269 24.6465 186.417 25.291C185.565 25.9355 184.476 26.2578 183.151 26.2578C181.483 26.2578 180.158 25.7458 179.177 24.7217C178.203 23.6904 177.716 22.2474 177.716 20.3926C177.716 18.4733 178.21 16.9837 179.198 15.9238C180.187 14.8639 181.468 14.334 183.044 14.334C184.569 14.334 185.815 14.8532 186.782 15.8916C187.749 16.93 188.232 18.391 188.232 20.2744C188.232 20.389 188.229 20.5609 188.222 20.79H179.714C179.785 22.0433 180.14 23.0029 180.777 23.6689C181.415 24.335 182.21 24.668 183.162 24.668C183.871 24.668 184.476 24.4818 184.978 24.1094C185.479 23.737 185.876 23.1426 186.17 22.3262ZM179.821 19.2002H186.191C186.105 18.2406 185.862 17.5208 185.461 17.041C184.845 16.2962 184.047 15.9238 183.065 15.9238C182.177 15.9238 181.429 16.221 180.82 16.8154C180.219 17.4098 179.886 18.2048 179.821 19.2002ZM188.834 14.5918H198.104V16.1924H194.431V26H192.508V16.1924H188.834V14.5918ZM207.139 24.5928C206.423 25.2015 205.731 25.6312 205.065 25.8818C204.407 26.1325 203.698 26.2578 202.938 26.2578C201.685 26.2578 200.722 25.9535 200.049 25.3447C199.376 24.7288 199.039 23.9447 199.039 22.9922C199.039 22.4336 199.164 21.9251 199.415 21.4668C199.673 21.0013 200.006 20.6289 200.414 20.3496C200.829 20.0703 201.295 19.859 201.811 19.7158C202.19 19.6156 202.763 19.5189 203.529 19.4258C205.09 19.2396 206.24 19.0176 206.978 18.7598C206.985 18.4948 206.988 18.3265 206.988 18.2549C206.988 17.4671 206.806 16.9121 206.44 16.5898C205.946 16.153 205.212 15.9346 204.238 15.9346C203.329 15.9346 202.656 16.0957 202.219 16.418C201.789 16.7331 201.47 17.2952 201.263 18.1045L199.372 17.8467C199.544 17.0374 199.827 16.3857 200.221 15.8916C200.615 15.3903 201.184 15.0072 201.929 14.7422C202.674 14.4701 203.536 14.334 204.518 14.334C205.492 14.334 206.283 14.4486 206.892 14.6777C207.5 14.9069 207.948 15.1969 208.234 15.5479C208.521 15.8916 208.721 16.3285 208.836 16.8584C208.9 17.1878 208.933 17.7822 208.933 18.6416V21.2197C208.933 23.0173 208.972 24.1559 209.051 24.6357C209.137 25.1084 209.301 25.5632 209.545 26H207.525C207.325 25.599 207.196 25.1299 207.139 24.5928ZM206.978 20.2744C206.276 20.5609 205.223 20.8044 203.819 21.0049C203.024 21.1195 202.462 21.2484 202.133 21.3916C201.803 21.5348 201.549 21.7461 201.37 22.0254C201.191 22.2975 201.102 22.6019 201.102 22.9385C201.102 23.4541 201.295 23.8838 201.682 24.2275C202.076 24.5713 202.648 24.7432 203.4 24.7432C204.145 24.7432 204.808 24.582 205.388 24.2598C205.968 23.9303 206.394 23.4827 206.666 22.917C206.874 22.4801 206.978 21.8356 206.978 20.9834V20.2744ZM212.886 14.5918H221.866V26H219.943V16.1924H214.819V21.875C214.819 23.1999 214.776 24.0736 214.69 24.4961C214.604 24.9186 214.368 25.2874 213.981 25.6025C213.595 25.9176 213.036 26.0752 212.306 26.0752C211.854 26.0752 211.335 26.0465 210.748 25.9893V24.3779H211.597C211.998 24.3779 212.284 24.3385 212.456 24.2598C212.628 24.1738 212.743 24.0413 212.8 23.8623C212.857 23.6833 212.886 23.0996 212.886 22.1113V14.5918ZM224.788 14.5918H226.722V23.293L232.082 14.5918H234.166V26H232.232V17.3525L226.872 26H224.788V14.5918Z" fill="white" fill-opacity="0.59"/>
</svg>
